<svg style="display:none" xmlns="http://www.w3.org/2000/svg" xmlns:xlink="http://www.w3.org/1999/xlink" version="1.1">
	<symbol id="shopping_bag" xmlns="http://www.w3.org/2000/svg" viewBox="0 -960 960 960" fill="currentColor"><path d="M240-80q-33 0-56.5-23.5T160-160v-480q0-33 23.5-56.5T240-720h80q0-66 47-113t113-47q66 0 113 47t47 113h80q33 0 56.5 23.5T800-640v480q0 33-23.5 56.5T720-80H240Zm0-80h480v-480h-80v80q0 17-11.5 28.5T600-520q-17 0-28.5-11.5T560-560v-80H400v80q0 17-11.5 28.5T360-520q-17 0-28.5-11.5T320-560v-80h-80v480Zm160-560h160q0-33-23.5-56.5T480-800q-33 0-56.5 23.5T400-720ZM240-160v-480 480Z"/></symbol>
	<symbol id="menu_mobile" viewBox="0 0 24 24" fill="none" xmlns="http://www.w3.org/2000/svg">
		<path fill-rule="evenodd" clip-rule="evenodd" d="M2.25 6C2.25 5.58579 2.58579 5.25 3 5.25H21C21.4142 5.25 21.75 5.58579 21.75 6C21.75 6.41421 21.4142 6.75 21 6.75H3C2.58579 6.75 2.25 6.41421 2.25 6ZM2.25 12C2.25 11.5858 2.58579 11.25 3 11.25H21C21.4142 11.25 21.75 11.5858 21.75 12C21.75 12.4142 21.4142 12.75 21 12.75H3C2.58579 12.75 2.25 12.4142 2.25 12ZM2.25 18C2.25 17.5858 2.58579 17.25 3 17.25H21C21.4142 17.25 21.75 17.5858 21.75 18C21.75 18.4142 21.4142 18.75 21 18.75H3C2.58579 18.75 2.25 18.4142 2.25 18Z" fill="white"/>
	</symbol>
	<symbol id="minicart" viewBox="0 0 19 21" fill="none" xmlns="http://www.w3.org/2000/svg">
		<g clip-path="url(#clip0_8225_1469)">
			<path d="M16.6076 7.2462H15.105V6.35463C15.105 6.23226 15.105 6.11426 15.0964 5.99188C14.9295 2.65723 12.4979 0 9.52684 0C6.55582 0 4.14561 2.62664 3.96152 5.93944C3.95296 6.07492 3.94868 6.21478 3.94868 6.35026V7.24183H2.38611C1.11893 7.24183 -0.379421 7.99355 0.0872089 9.58876L3.55055 18.6531C3.99577 19.8549 4.57799 21 5.84945 21H13.1529C14.42 21 15.0708 19.9467 15.4518 18.6531L18.9151 9.58876C19.3732 7.96733 17.8877 7.24183 16.6162 7.24183L16.6076 7.2462ZM5.09599 7.2462V6.35463C5.09599 6.22352 5.10027 6.08803 5.10884 5.96129C5.28864 3.36524 7.19797 1.3155 9.52256 1.3155C11.8471 1.3155 13.7864 3.39584 13.9406 6.01811C13.9491 6.13174 13.9491 6.24537 13.9491 6.359V7.25057H5.09599V7.2462Z" fill="#4D5D49"/>
			<path d="M16.6076 7.2462H15.105V6.35463C15.105 6.23226 15.105 6.11426 15.0964 5.99188C14.9295 2.65723 12.4979 0 9.52684 0C6.55582 0 4.14561 2.62664 3.96152 5.93944C3.95296 6.07492 3.94868 6.21478 3.94868 6.35026V7.24183H2.38611C1.11893 7.24183 -0.379421 7.99355 0.0872089 9.58876L3.55055 18.6531C3.99577 19.8549 4.57799 21 5.84945 21H13.1529C14.42 21 15.0708 19.9467 15.4518 18.6531L18.9151 9.58876C19.3732 7.96733 17.8877 7.24183 16.6162 7.24183L16.6076 7.2462ZM5.09599 7.2462V6.35463C5.09599 6.22352 5.10027 6.08803 5.10884 5.96129C5.28864 3.36524 7.19797 1.3155 9.52256 1.3155C11.8471 1.3155 13.7864 3.39584 13.9406 6.01811C13.9491 6.13174 13.9491 6.24537 13.9491 6.359V7.25057H5.09599V7.2462Z" fill="white"/>
		</g>
		<defs>
			<clipPath id="clip0_8225_1469">
			<rect width="19" height="21" fill="white"/>
			</clipPath>
		</defs>
	</symbol>
	<symbol id="menu" xmlns="http://www.w3.org/2000/svg" viewBox="0 -960 960 960" fill="currentColor"><path d="M120-240v-80h720v80H120Zm0-200v-80h720v80H120Zm0-200v-80h720v80H120Z"/></symbol>
	<symbol id="account_circle" xmlns="http://www.w3.org/2000/svg" viewBox="0 -960 960 960" fill="currentColor"><path d="M234-276q51-39 114-61.5T480-360q69 0 132 22.5T726-276q35-41 54.5-93T800-480q0-133-93.5-226.5T480-800q-133 0-226.5 93.5T160-480q0 59 19.5 111t54.5 93Zm246-164q-59 0-99.5-40.5T340-580q0-59 40.5-99.5T480-720q59 0 99.5 40.5T620-580q0 59-40.5 99.5T480-440Zm0 360q-83 0-156-31.5T197-197q-54-54-85.5-127T80-480q0-83 31.5-156T197-763q54-54 127-85.5T480-880q83 0 156 31.5T763-763q54 54 85.5 127T880-480q0 83-31.5 156T763-197q-54 54-127 85.5T480-80Zm0-80q53 0 100-15.5t86-44.5q-39-29-86-44.5T480-280q-53 0-100 15.5T294-220q39 29 86 44.5T480-160Zm0-360q26 0 43-17t17-43q0-26-17-43t-43-17q-26 0-43 17t-17 43q0 26 17 43t43 17Zm0-60Zm0 360Z"/></symbol>
	<symbol id="close" xmlns="http://www.w3.org/2000/svg" viewBox="0 -960 960 960" fill="currentColor"><path d="m256-200-56-56 224-224-224-224 56-56 224 224 224-224 56 56-224 224 224 224-56 56-224-224-224 224Z"/></symbol>
	<symbol id="chevron-right" xmlns="http://www.w3.org/2000/svg" viewBox="0 -960 960 960" fill="currentColor"><path d="M504-480 320-664l56-56 240 240-240 240-56-56 184-184Z"/></symbol>
	<symbol id="favorite" xmlns="http://www.w3.org/2000/svg" viewBox="0 -960 960 960" fill="currentColor"><path d="m480-120-58-52q-101-91-167-157T150-447.5Q111-500 95.5-544T80-634q0-94 63-157t157-63q52 0 99 22t81 62q34-40 81-62t99-22q94 0 157 63t63 157q0 46-15.5 90T810-447.5Q771-395 705-329T538-172l-58 52Zm0-108q96-86 158-147.5t98-107q36-45.5 50-81t14-70.5q0-60-40-100t-100-40q-47 0-87 26.5T518-680h-76q-15-41-55-67.5T300-774q-60 0-100 40t-40 100q0 35 14 70.5t50 81q36 45.5 98 107T480-228Zm0-273Z"/></symbol>
	<symbol id="home_pin" xmlns="http://www.w3.org/2000/svg" viewBox="0 -960 960 960" fill="currentColor"><path d="M360-440h80v-110h80v110h80v-190l-120-80-120 80v190Zm120 254q122-112 181-203.5T720-552q0-109-69.5-178.5T480-800q-101 0-170.5 69.5T240-552q0 71 59 162.5T480-186Zm0 106Q319-217 239.5-334.5T160-552q0-150 96.5-239T480-880q127 0 223.5 89T800-552q0 100-79.5 217.5T480-80Zm0-480Z"/></symbol>
	<symbol id="call" xmlns="http://www.w3.org/2000/svg" viewBox="0 -960 960 960" fill="currentColor"><path d="M798-120q-125 0-247-54.5T329-329Q229-429 174.5-551T120-798q0-18 12-30t30-12h162q14 0 25 9.5t13 22.5l26 140q2 16-1 27t-11 19l-97 98q20 37 47.5 71.5T387-386q31 31 65 57.5t72 48.5l94-94q9-9 23.5-13.5T670-390l138 28q14 4 23 14.5t9 23.5v162q0 18-12 30t-30 12ZM241-600l66-66-17-94h-89q5 41 14 81t26 79Zm358 358q39 17 79.5 27t81.5 13v-88l-94-19-67 67ZM241-600Zm358 358Z"/></symbol>
	<symbol id="local_shipping" xmlns="http://www.w3.org/2000/svg" viewBox="0 -960 960 960" fill="currentColor"><path d="M240-160q-50 0-85-35t-35-85H40v-440q0-33 23.5-56.5T120-800h560v160h120l120 160v200h-80q0 50-35 85t-85 35q-50 0-85-35t-35-85H360q0 50-35 85t-85 35Zm0-80q17 0 28.5-11.5T280-280q0-17-11.5-28.5T240-320q-17 0-28.5 11.5T200-280q0 17 11.5 28.5T240-240ZM120-360h32q17-18 39-29t49-11q27 0 49 11t39 29h272v-360H120v360Zm600 120q17 0 28.5-11.5T760-280q0-17-11.5-28.5T720-320q-17 0-28.5 11.5T680-280q0 17 11.5 28.5T720-240Zm-40-200h170l-90-120h-80v120ZM360-540Z"/></symbol>
	<symbol id="pan_zoom" xmlns="http://www.w3.org/2000/svg" viewBox="0 -960 960 960" fill="currentColor"><path d="M120-120v-240h80v104l124-124 56 56-124 124h104v80H120Zm516-460-56-56 124-124H600v-80h240v240h-80v-104L636-580Z"/></symbol>
	<symbol id="share" xmlns="http://www.w3.org/2000/svg" viewBox="0 -960 960 960" fill="currentColor"><path d="M720-80q-50 0-85-35t-35-85q0-7 1-14.5t3-13.5L322-392q-17 15-38 23.5t-44 8.5q-50 0-85-35t-35-85q0-50 35-85t85-35q23 0 44 8.5t38 23.5l282-164q-2-6-3-13.5t-1-14.5q0-50 35-85t85-35q50 0 85 35t35 85q0 50-35 85t-85 35q-23 0-44-8.5T638-672L356-508q2 6 3 13.5t1 14.5q0 7-1 14.5t-3 13.5l282 164q17-15 38-23.5t44-8.5q50 0 85 35t35 85q0 50-35 85t-85 35Zm0-640q17 0 28.5-11.5T760-760q0-17-11.5-28.5T720-800q-17 0-28.5 11.5T680-760q0 17 11.5 28.5T720-720ZM240-440q17 0 28.5-11.5T280-480q0-17-11.5-28.5T240-520q-17 0-28.5 11.5T200-480q0 17 11.5 28.5T240-440Zm480 280q17 0 28.5-11.5T760-200q0-17-11.5-28.5T720-240q-17 0-28.5 11.5T680-200q0 17 11.5 28.5T720-160Zm0-600ZM240-480Zm480 280Z"/></symbol>
	<symbol id="sell" xmlns="http://www.w3.org/2000/svg" viewBox="0 -960 960 960" fill="currentColor"><path d="M856-390 570-104q-12 12-27 18t-30 6q-15 0-30-6t-27-18L103-457q-11-11-17-25.5T80-513v-287q0-33 23.5-56.5T160-880h287q16 0 31 6.5t26 17.5l352 353q12 12 17.5 27t5.5 30q0 15-5.5 29.5T856-390ZM513-160l286-286-353-354H160v286l353 354ZM260-640q25 0 42.5-17.5T320-700q0-25-17.5-42.5T260-760q-25 0-42.5 17.5T200-700q0 25 17.5 42.5T260-640Zm220 160Z"/></symbol>
	<symbol id="check-circle" xmlns="http://www.w3.org/2000/svg" viewBox="0 -960 960 960" fill="currentColor"><path d="m424-296 282-282-56-56-226 226-114-114-56 56 170 170Zm56 216q-83 0-156-31.5T197-197q-54-54-85.5-127T80-480q0-83 31.5-156T197-763q54-54 127-85.5T480-880q83 0 156 31.5T763-763q54 54 85.5 127T880-480q0 83-31.5 156T763-197q-54 54-127 85.5T480-80Zm0-80q134 0 227-93t93-227q0-134-93-227t-227-93q-134 0-227 93t-93 227q0 134 93 227t227 93Zm0-320Z"/></symbol>
	<symbol id="error" xmlns="http://www.w3.org/2000/svg" viewBox="0 -960 960 960" fill="currentColor"><path d="M480-280q17 0 28.5-11.5T520-320q0-17-11.5-28.5T480-360q-17 0-28.5 11.5T440-320q0 17 11.5 28.5T480-280Zm-40-160h80v-240h-80v240Zm40 360q-83 0-156-31.5T197-197q-54-54-85.5-127T80-480q0-83 31.5-156T197-763q54-54 127-85.5T480-880q83 0 156 31.5T763-763q54 54 85.5 127T880-480q0 83-31.5 156T763-197q-54 54-127 85.5T480-80Zm0-80q134 0 227-93t93-227q0-134-93-227t-227-93q-134 0-227 93t-93 227q0 134 93 227t227 93Zm0-320Z"/></symbol>
	<symbol id="trash" xmlns="http://www.w3.org/2000/svg" viewBox="0 -960 960 960" fill="currentColor"><path d="M280-120q-33 0-56.5-23.5T200-200v-520h-40v-80h200v-40h240v40h200v80h-40v520q0 33-23.5 56.5T680-120H280Zm400-600H280v520h400v-520ZM360-280h80v-360h-80v360Zm160 0h80v-360h-80v360ZM280-720v520-520Z"/></symbol>
	<symbol id="profile" viewBox="0 0 30 30" fill="none" xmlns="http://www.w3.org/2000/svg">
		<circle cx="15" cy="15" r="15" fill="#FF7300"/>
		<path fill-rule="evenodd" clip-rule="evenodd" d="M11.7535 18.2666C8.4881 18.2666 5.80888 20.9196 5.76322 24.1749H5.76337V24.1818C5.75148 24.2502 5.7562 24.3203 5.77694 24.3867V24.3934C5.78593 24.4194 5.79737 24.4446 5.81109 24.4685C5.81947 24.4827 5.82862 24.4964 5.83838 24.5095C5.84692 24.5213 5.85606 24.5327 5.86582 24.5437C5.87436 24.5554 5.88335 24.5669 5.89311 24.5778C5.9018 24.5873 5.91095 24.5964 5.9204 24.6051C5.93351 24.615 5.94723 24.6242 5.96141 24.6324C5.97239 24.6397 5.98383 24.6466 5.99556 24.653H6.00243C6.03902 24.6721 6.07804 24.6858 6.11845 24.694H6.12531C6.18172 24.7051 6.23965 24.7051 6.29606 24.694H24.478C24.5486 24.707 24.6213 24.7023 24.6896 24.6804C24.753 24.6618 24.8114 24.6292 24.8603 24.5849C24.8651 24.5804 24.8696 24.5759 24.8741 24.5713V24.5644C24.8835 24.5557 24.8927 24.5466 24.9014 24.5371C24.9036 24.5349 24.9059 24.5327 24.9082 24.5304C24.9154 24.5216 24.9222 24.5124 24.9286 24.503V24.4963C24.936 24.4852 24.9428 24.4739 24.9492 24.4621C24.9633 24.4361 24.9747 24.4086 24.9834 24.3801C24.9991 24.3248 25.0038 24.2667 24.9969 24.2094V24.2026C24.9666 20.9347 22.2817 18.2674 19.0067 18.2674H11.7531L11.7535 18.2666Z" fill="white"/>
		<path fill-rule="evenodd" clip-rule="evenodd" d="M15.3801 6.29688C12.6391 6.29688 10.4081 8.52812 10.4081 11.2688C10.4081 14.0078 12.6393 16.2385 15.3801 16.2385C18.119 16.2385 20.3501 14.0076 20.3501 11.2688C20.3501 8.52808 18.1191 6.29688 15.3801 6.29688Z" fill="white"/>
	</symbol>
	<symbol id="orders" width="30" height="30" viewBox="0 0 30 30" fill="none" xmlns="http://www.w3.org/2000/svg">
		<circle cx="15" cy="15" r="15" fill="#FF7300"/>
		<path d="M16.4045 7.00147C16.392 7.00074 16.3796 7.00074 16.3672 7.00147C16.2634 7.01039 16.17 7.06812 16.1158 7.15698C16.0616 7.24585 16.0528 7.35517 16.0921 7.45164L17.94 12.199H11.5814L13.4295 7.45164H13.4296C13.4717 7.34801 13.458 7.23006 13.3932 7.13886C13.3283 7.04765 13.2217 6.99577 13.1098 7.00147C12.9777 7.00673 12.8617 7.09091 12.8158 7.215L10.5291 13.1018C10.5205 13.1208 10.5136 13.1405 10.5088 13.1607C10.3504 13.0807 10.2846 12.8889 10.3605 12.7285L10.5664 12.1989H6.24891C5.88614 12.1989 5.59412 12.491 5.59412 12.8537V13.1811C5.59412 13.5439 5.88614 13.8359 6.24891 13.8359H23.2734C23.6362 13.8359 23.9282 13.5439 23.9282 13.1811V12.8537C23.9282 12.491 23.6362 12.1989 23.2734 12.1989H18.9507L19.1566 12.7285C19.2195 12.8838 19.1549 13.0614 19.007 13.1402C19.0032 13.127 18.9985 13.1142 18.9932 13.1016L16.7066 7.21485C16.66 7.0877 16.54 7.00234 16.4046 7L16.4045 7.00147Z" fill="white"/>
		<path fill-rule="evenodd" clip-rule="evenodd" d="M7.23108 14.4912L8.84381 21.4776C9.04945 22.3685 9.84369 22.9996 10.7583 22.9996H18.7629C19.6775 22.9996 20.4718 22.3685 20.6774 21.4776L22.2901 14.4912H7.23108ZM10.3389 16.2868C10.4985 16.2849 10.6363 16.3983 10.6649 16.5554L11.481 20.6402C11.5027 20.7273 11.4878 20.8196 11.4396 20.8955C11.3914 20.9712 11.314 21.024 11.2259 21.0411C11.1378 21.0583 11.0463 21.0386 10.9732 20.9864C10.9 20.9344 10.8515 20.8544 10.8389 20.7654L10.0217 16.6855C10.0015 16.5953 10.0204 16.5008 10.0737 16.4252C10.1271 16.3497 10.21 16.3002 10.3017 16.2891C10.3142 16.2884 10.3266 16.2884 10.3392 16.2891L10.3389 16.2868ZM13.1115 16.2868C13.2835 16.2805 13.4312 16.4085 13.4491 16.5797L13.9415 20.6644C13.9547 20.7524 13.9317 20.842 13.8778 20.9127C13.8237 20.9835 13.7433 21.0294 13.6549 21.0398C13.5665 21.0501 13.4778 21.0241 13.4088 20.9678C13.3398 20.9116 13.2967 20.8297 13.2892 20.741L12.8008 16.6562L12.8006 16.6564C12.7772 16.4778 12.9023 16.3138 13.0808 16.2894C13.091 16.2888 13.1013 16.2888 13.1115 16.2894L13.1115 16.2868ZM19.1771 16.2868C19.2772 16.2856 19.3724 16.3302 19.4355 16.4079C19.4985 16.4858 19.5225 16.5881 19.5007 16.6858L18.6835 20.7657H18.6834C18.6676 20.8516 18.6179 20.9278 18.5457 20.9769C18.4733 21.0261 18.3845 21.0444 18.2985 21.0277C18.2127 21.0111 18.1372 20.9606 18.0887 20.888C18.0401 20.8152 18.0227 20.7261 18.0401 20.6404L18.8573 16.5556C18.8835 16.4139 18.9994 16.3057 19.1426 16.2896C19.1542 16.2889 19.1657 16.2889 19.1772 16.2896L19.1771 16.2868ZM16.3942 16.2868C16.4884 16.2865 16.5783 16.3267 16.6407 16.3971C16.7031 16.4677 16.7322 16.5617 16.7203 16.6551L16.233 20.7398H16.2332C16.212 20.9203 16.0484 21.0494 15.8679 21.0282C15.6876 21.007 15.5584 20.8435 15.5796 20.6631L16.0731 16.5783H16.0733C16.0901 16.424 16.213 16.3028 16.3674 16.2879C16.3764 16.2876 16.3853 16.2876 16.3944 16.2879L16.3942 16.2868Z" fill="white"/>
	</symbol>
	<symbol id="wishlist" viewBox="0 0 30 30" fill="none" xmlns="http://www.w3.org/2000/svg">
		<circle cx="15" cy="15" r="15" fill="#FF7300"/>
		<path d="M24.5403 10.4838C24.2455 9.80207 23.8204 9.18428 23.2889 8.66503C22.757 8.14423 22.1298 7.73036 21.4415 7.44592C20.7277 7.14981 19.9622 6.99824 19.1894 7.00002C18.1051 7.00002 17.0472 7.29656 16.1279 7.85669C15.908 7.99068 15.699 8.13785 15.5011 8.2982C15.3031 8.13785 15.0942 7.99068 14.8743 7.85669C13.955 7.29656 12.8971 7.00002 11.8128 7.00002C11.0321 7.00002 10.2755 7.14938 9.56071 7.44592C8.87012 7.73148 8.24771 8.14224 7.71327 8.66503C7.18103 9.1837 6.75586 9.80163 6.46186 10.4838C6.15615 11.1933 6 11.9467 6 12.7221C6 13.4536 6.14955 14.2158 6.44646 14.9912C6.69499 15.6392 7.05128 16.3114 7.50654 16.9901C8.22792 18.0643 9.21981 19.1845 10.4514 20.3202C12.4924 22.2026 14.5136 23.503 14.5994 23.5557L15.1206 23.8896C15.3515 24.0368 15.6484 24.0368 15.8794 23.8896L16.4006 23.5557C16.4864 23.5008 18.5054 22.2026 20.5485 20.3202C21.7802 19.1845 22.7721 18.0643 23.4934 16.9901C23.9487 16.3114 24.3072 15.6392 24.5535 14.9912C24.8504 14.2158 25 13.4536 25 12.7221C25.0022 11.9467 24.846 11.1933 24.5403 10.4838Z" fill="white" stroke="white"/>
	</symbol>
	<symbol id="user" viewBox="0 0 24 24" fill="none" xmlns="http://www.w3.org/2000/svg">
		<g clip-path="url(#clip0_8225_1435)">
			<path d="M12.0001 4.5C11.2993 4.49975 10.6142 4.70734 10.0315 5.0965C9.44872 5.48566 8.99447 6.03891 8.7262 6.68627C8.45792 7.33363 8.38766 8.04601 8.52431 8.7333C8.66096 9.4206 8.99837 10.0519 9.49387 10.5474C9.98938 11.0429 10.6207 11.3803 11.308 11.517C11.9953 11.6536 12.7077 11.5834 13.355 11.3151C14.0024 11.0468 14.5556 10.5926 14.9448 10.0098C15.334 9.42708 15.5415 8.742 15.5413 8.04125C15.5413 7.10205 15.1682 6.20132 14.5041 5.53721C13.84 4.8731 12.9392 4.5 12.0001 4.5Z" fill="white"/>
			<path d="M17.4862 14.0138C16.8486 13.3744 16.0908 12.8674 15.2566 12.5218C14.4223 12.1762 13.528 11.9989 12.625 12H11.375C9.55164 12 7.80295 12.7243 6.51364 14.0136C5.22433 15.303 4.5 17.0516 4.5 18.875C4.5 19.0408 4.56585 19.1997 4.68306 19.3169C4.80027 19.4342 4.95924 19.5 5.125 19.5H18.875C19.0408 19.5 19.1997 19.4342 19.3169 19.3169C19.4342 19.1997 19.5 19.0408 19.5 18.875C19.5011 17.972 19.3238 17.0777 18.9782 16.2434C18.6326 15.4092 18.1256 14.6514 17.4862 14.0138Z" fill="white"/>
		</g>
		<defs>
			<clipPath id="clip0_8225_1435">
				<rect width="16" height="16" fill="white" transform="translate(4 4)"/>
			</clipPath>
		</defs>
	</symbol>
	<symbol id="search" viewBox="0 0 24 24" fill="none" xmlns="http://www.w3.org/2000/svg">
		<path d="M18.781 17.7647L15.5109 14.4706C16.2701 13.4706 16.7372 12.2353 16.7372 10.8824C16.7372 7.64706 14.1095 5 10.8978 5C7.68613 5 5 7.64706 5 10.8824C5 14.1176 7.62774 16.7647 10.8394 16.7647C12.1825 16.7647 13.4672 16.2941 14.4599 15.4706L17.7299 18.7647C17.8467 18.8824 18.0803 19 18.2555 19C18.4307 19 18.6058 18.9412 18.781 18.7647C19.073 18.5294 19.073 18.0588 18.781 17.7647ZM6.45985 10.8824C6.45985 8.47059 8.44526 6.47059 10.8394 6.47059C13.2336 6.47059 15.219 8.47059 15.219 10.8824C15.219 13.2941 13.2336 15.2941 10.8394 15.2941C8.44526 15.2941 6.45985 13.3529 6.45985 10.8824Z" fill="white"/>
	</symbol>
	<symbol id="closeminicartbutton" viewBox="0 0 16 16" fill="none" xmlns="http://www.w3.org/2000/svg">
		<path fill-rule="evenodd" clip-rule="evenodd" d="M0.26035 0.26035C0.607482 -0.0867832 1.1703 -0.0867832 1.51743 0.26035L8 6.74292L14.4826 0.26035C14.8297 -0.0867832 15.3925 -0.0867832 15.7397 0.26035C16.0868 0.607482 16.0868 1.1703 15.7397 1.51743L9.25708 8L15.7397 14.4826C16.0868 14.8297 16.0868 15.3925 15.7397 15.7397C15.3925 16.0868 14.8297 16.0868 14.4826 15.7397L8 9.25708L1.51743 15.7397C1.1703 16.0868 0.607482 16.0868 0.26035 15.7397C-0.0867832 15.3925 -0.0867832 14.8297 0.26035 14.4826L6.74292 8L0.26035 1.51743C-0.0867832 1.1703 -0.0867832 0.607482 0.26035 0.26035Z" fill="#5E6C5B"/>
	</symbol>
	<symbol id="search_desk" viewBox="0 0 14 15" fill="none" xmlns="http://www.w3.org/2000/svg">
		<path d="M5.46161 0.5C2.44919 0.5 0 2.94973 0 5.96261C0 8.97546 2.44928 11.4252 5.46161 11.4252C6.84621 11.4252 8.10887 10.9062 9.07231 10.0542L13.4139 14.3965C13.4778 14.4624 13.5655 14.4996 13.6572 14.5C13.7489 14.5004 13.8369 14.4638 13.9014 14.3987C13.9659 14.3334 14.0014 14.2451 14 14.1534C13.9986 14.0616 13.9604 13.9743 13.8939 13.9112L9.55782 9.574C10.4071 8.61091 10.9232 7.34515 10.9232 5.96264C10.9232 2.94967 8.47397 0.500034 5.46164 0.500034L5.46161 0.5ZM5.46161 1.18289C8.10494 1.18289 10.2405 3.31873 10.2405 5.96267C10.2405 8.60649 8.10506 10.7425 5.46161 10.7425C2.81815 10.7425 0.682701 8.60661 0.682701 5.96267C0.682701 3.31873 2.81815 1.18289 5.46161 1.18289Z" fill="black"/>
	</symbol>
	<symbol id="trashnew" viewBox="0 0 32 29" fill="none" xmlns="http://www.w3.org/2000/svg">
		<path d="M13.714 2.28571L14.2854 0H17.714L18.2854 2.28571M22.8569 2.28571H10.2854L11.4283 16H20.5712L21.714 2.28571H9.14258H22.8569ZM15.9997 5.71429V12.5714V5.71429ZM18.8569 5.71429L18.2854 12.5714L18.8569 5.71429ZM13.1426 5.71429L13.714 12.5714L13.1426 5.71429Z" stroke="#ACACAC" stroke-linecap="round" stroke-linejoin="round"/>
		<path d="M0.660156 21.3125H2.54297C2.97005 21.3125 3.33073 21.3776 3.625 21.5078C3.92188 21.638 4.14714 21.8307 4.30078 22.0859C4.45703 22.3385 4.53516 22.6497 4.53516 23.0195C4.53516 23.2799 4.48177 23.5182 4.375 23.7344C4.27083 23.9479 4.11979 24.1302 3.92188 24.2812C3.72656 24.4297 3.49219 24.5404 3.21875 24.6133L3.00781 24.6953H1.23828L1.23047 24.082H2.56641C2.83724 24.082 3.0625 24.0352 3.24219 23.9414C3.42188 23.8451 3.55729 23.7161 3.64844 23.5547C3.73958 23.3932 3.78516 23.2148 3.78516 23.0195C3.78516 22.8008 3.74219 22.6094 3.65625 22.4453C3.57031 22.2812 3.4349 22.1549 3.25 22.0664C3.06771 21.9753 2.83203 21.9297 2.54297 21.9297H1.41406V27H0.660156V21.3125ZM3.98438 27L2.60156 24.4219L3.38672 24.418L4.78906 26.9531V27H3.98438ZM7.23438 27.0781C6.9401 27.0781 6.67318 27.0286 6.43359 26.9297C6.19661 26.8281 5.99219 26.6862 5.82031 26.5039C5.65104 26.3216 5.52083 26.1055 5.42969 25.8555C5.33854 25.6055 5.29297 25.332 5.29297 25.0352V24.8711C5.29297 24.5273 5.34375 24.2214 5.44531 23.9531C5.54688 23.6823 5.6849 23.4531 5.85938 23.2656C6.03385 23.0781 6.23177 22.9362 6.45312 22.8398C6.67448 22.7435 6.90365 22.6953 7.14062 22.6953C7.44271 22.6953 7.70312 22.7474 7.92188 22.8516C8.14323 22.9557 8.32422 23.1016 8.46484 23.2891C8.60547 23.474 8.70964 23.6927 8.77734 23.9453C8.84505 24.1953 8.87891 24.4688 8.87891 24.7656V25.0898H5.72266V24.5H8.15625V24.4453C8.14583 24.2578 8.10677 24.0755 8.03906 23.8984C7.97396 23.7214 7.86979 23.5755 7.72656 23.4609C7.58333 23.3464 7.38802 23.2891 7.14062 23.2891C6.97656 23.2891 6.82552 23.3242 6.6875 23.3945C6.54948 23.4622 6.43099 23.5638 6.33203 23.6992C6.23307 23.8346 6.15625 24 6.10156 24.1953C6.04688 24.3906 6.01953 24.6159 6.01953 24.8711V25.0352C6.01953 25.2357 6.04688 25.4245 6.10156 25.6016C6.15885 25.776 6.24089 25.9297 6.34766 26.0625C6.45703 26.1953 6.58854 26.2995 6.74219 26.375C6.89844 26.4505 7.07552 26.4883 7.27344 26.4883C7.52865 26.4883 7.74479 26.4362 7.92188 26.332C8.09896 26.2279 8.25391 26.0885 8.38672 25.9141L8.82422 26.2617C8.73307 26.3997 8.61719 26.5312 8.47656 26.6562C8.33594 26.7812 8.16276 26.8828 7.95703 26.9609C7.75391 27.0391 7.51302 27.0781 7.23438 27.0781ZM10.4414 23.6133V27H9.71484V22.7734H10.4023L10.4414 23.6133ZM10.293 24.7266L9.95703 24.7148C9.95964 24.4258 9.9974 24.1589 10.0703 23.9141C10.1432 23.6667 10.2513 23.4518 10.3945 23.2695C10.5378 23.0872 10.7161 22.9466 10.9297 22.8477C11.1432 22.7461 11.3906 22.6953 11.6719 22.6953C11.8698 22.6953 12.0521 22.724 12.2188 22.7812C12.3854 22.8359 12.5299 22.9232 12.6523 23.043C12.7747 23.1628 12.8698 23.3164 12.9375 23.5039C13.0052 23.6914 13.0391 23.918 13.0391 24.1836V27H12.3164V24.2188C12.3164 23.9974 12.2786 23.8203 12.2031 23.6875C12.1302 23.5547 12.026 23.4583 11.8906 23.3984C11.7552 23.3359 11.5964 23.3047 11.4141 23.3047C11.2005 23.3047 11.0221 23.3424 10.8789 23.418C10.7357 23.4935 10.6211 23.5977 10.5352 23.7305C10.4492 23.8633 10.3867 24.0156 10.3477 24.1875C10.3112 24.3568 10.293 24.5365 10.293 24.7266ZM13.0312 24.3281L12.5469 24.4766C12.5495 24.2448 12.5872 24.0221 12.6602 23.8086C12.7357 23.5951 12.8438 23.4049 12.9844 23.2383C13.1276 23.0716 13.3034 22.9401 13.5117 22.8438C13.7201 22.7448 13.9583 22.6953 14.2266 22.6953C14.4531 22.6953 14.6536 22.7253 14.8281 22.7852C15.0052 22.8451 15.1536 22.9375 15.2734 23.0625C15.3958 23.1849 15.4883 23.3424 15.5508 23.5352C15.6133 23.7279 15.6445 23.957 15.6445 24.2227V27H14.918V24.2148C14.918 23.9779 14.8802 23.7943 14.8047 23.6641C14.7318 23.5312 14.6276 23.4388 14.4922 23.3867C14.3594 23.332 14.2005 23.3047 14.0156 23.3047C13.8568 23.3047 13.7161 23.332 13.5938 23.3867C13.4714 23.4414 13.3685 23.5169 13.2852 23.6133C13.2018 23.707 13.138 23.8151 13.0938 23.9375C13.0521 24.0599 13.0312 24.1901 13.0312 24.3281ZM16.5469 24.9336V24.8438C16.5469 24.5391 16.5911 24.2565 16.6797 23.9961C16.7682 23.7331 16.8958 23.5052 17.0625 23.3125C17.2292 23.1172 17.431 22.9661 17.668 22.8594C17.9049 22.75 18.1706 22.6953 18.4648 22.6953C18.7617 22.6953 19.0286 22.75 19.2656 22.8594C19.5052 22.9661 19.7083 23.1172 19.875 23.3125C20.0443 23.5052 20.1732 23.7331 20.2617 23.9961C20.3503 24.2565 20.3945 24.5391 20.3945 24.8438V24.9336C20.3945 25.2383 20.3503 25.5208 20.2617 25.7812C20.1732 26.0417 20.0443 26.2695 19.875 26.4648C19.7083 26.6576 19.5065 26.8086 19.2695 26.918C19.0352 27.0247 18.7695 27.0781 18.4727 27.0781C18.1758 27.0781 17.9089 27.0247 17.6719 26.918C17.4349 26.8086 17.2318 26.6576 17.0625 26.4648C16.8958 26.2695 16.7682 26.0417 16.6797 25.7812C16.5911 25.5208 16.5469 25.2383 16.5469 24.9336ZM17.2695 24.8438V24.9336C17.2695 25.1445 17.2943 25.3438 17.3438 25.5312C17.3932 25.7161 17.4674 25.8802 17.5664 26.0234C17.668 26.1667 17.7943 26.2799 17.9453 26.3633C18.0964 26.444 18.2721 26.4844 18.4727 26.4844C18.6706 26.4844 18.8438 26.444 18.9922 26.3633C19.1432 26.2799 19.2682 26.1667 19.3672 26.0234C19.4661 25.8802 19.5404 25.7161 19.5898 25.5312C19.6419 25.3438 19.668 25.1445 19.668 24.9336V24.8438C19.668 24.6354 19.6419 24.4388 19.5898 24.2539C19.5404 24.0664 19.4648 23.901 19.3633 23.7578C19.2643 23.612 19.1393 23.4974 18.9883 23.4141C18.8398 23.3307 18.6654 23.2891 18.4648 23.2891C18.2669 23.2891 18.0924 23.3307 17.9414 23.4141C17.793 23.4974 17.668 23.612 17.5664 23.7578C17.4674 23.901 17.3932 24.0664 17.3438 24.2539C17.2943 24.4388 17.2695 24.6354 17.2695 24.8438ZM22.5234 26.3477L23.6797 22.7734H24.418L22.8984 27H22.4141L22.5234 26.3477ZM21.5586 22.7734L22.75 26.3672L22.832 27H22.3477L20.8164 22.7734H21.5586ZM26.8125 27.0781C26.5182 27.0781 26.2513 27.0286 26.0117 26.9297C25.7747 26.8281 25.5703 26.6862 25.3984 26.5039C25.2292 26.3216 25.099 26.1055 25.0078 25.8555C24.9167 25.6055 24.8711 25.332 24.8711 25.0352V24.8711C24.8711 24.5273 24.9219 24.2214 25.0234 23.9531C25.125 23.6823 25.263 23.4531 25.4375 23.2656C25.612 23.0781 25.8099 22.9362 26.0312 22.8398C26.2526 22.7435 26.4818 22.6953 26.7188 22.6953C27.0208 22.6953 27.2812 22.7474 27.5 22.8516C27.7214 22.9557 27.9023 23.1016 28.043 23.2891C28.1836 23.474 28.2878 23.6927 28.3555 23.9453C28.4232 24.1953 28.457 24.4688 28.457 24.7656V25.0898H25.3008V24.5H27.7344V24.4453C27.724 24.2578 27.6849 24.0755 27.6172 23.8984C27.5521 23.7214 27.4479 23.5755 27.3047 23.4609C27.1615 23.3464 26.9661 23.2891 26.7188 23.2891C26.5547 23.2891 26.4036 23.3242 26.2656 23.3945C26.1276 23.4622 26.0091 23.5638 25.9102 23.6992C25.8112 23.8346 25.7344 24 25.6797 24.1953C25.625 24.3906 25.5977 24.6159 25.5977 24.8711V25.0352C25.5977 25.2357 25.625 25.4245 25.6797 25.6016C25.737 25.776 25.819 25.9297 25.9258 26.0625C26.0352 26.1953 26.1667 26.2995 26.3203 26.375C26.4766 26.4505 26.6536 26.4883 26.8516 26.4883C27.1068 26.4883 27.3229 26.4362 27.5 26.332C27.6771 26.2279 27.832 26.0885 27.9648 25.9141L28.4023 26.2617C28.3112 26.3997 28.1953 26.5312 28.0547 26.6562C27.9141 26.7812 27.7409 26.8828 27.5352 26.9609C27.332 27.0391 27.0911 27.0781 26.8125 27.0781ZM30.0234 23.4375V27H29.3008V22.7734H30.0039L30.0234 23.4375ZM31.3438 22.75L31.3398 23.4219C31.2799 23.4089 31.2227 23.401 31.168 23.3984C31.1159 23.3932 31.056 23.3906 30.9883 23.3906C30.8216 23.3906 30.6745 23.4167 30.5469 23.4688C30.4193 23.5208 30.3112 23.5938 30.2227 23.6875C30.1341 23.7812 30.0638 23.8932 30.0117 24.0234C29.9622 24.151 29.9297 24.2917 29.9141 24.4453L29.7109 24.5625C29.7109 24.3073 29.7357 24.0677 29.7852 23.8438C29.8372 23.6198 29.9167 23.4219 30.0234 23.25C30.1302 23.0755 30.2656 22.9401 30.4297 22.8438C30.5964 22.7448 30.7943 22.6953 31.0234 22.6953C31.0755 22.6953 31.1354 22.7018 31.2031 22.7148C31.2708 22.7253 31.3177 22.737 31.3438 22.75Z" fill="#ACACAC"/>
	</symbol>
	<symbol id="arrow_footer" viewBox="0 0 17 10" fill="none" xmlns="http://www.w3.org/2000/svg">
		<path d="M0.813348 0.841207C0.39555 1.25177 0.39555 1.91371 0.813348 2.32427L7.89888 9.28714C8.23141 9.61392 8.76859 9.61392 9.10112 9.28714L16.1867 2.32427C16.6044 1.91371 16.6044 1.25177 16.1867 0.841207C15.7689 0.430641 15.0953 0.430641 14.6775 0.841207L8.49574 6.90753L2.31401 0.832828C1.90474 0.43064 1.22262 0.430641 0.813348 0.841207Z" fill="#2C2C2C"/>
	</symbol>
	<symbol id="add_to_cart" viewBox="0 0 41 41" fill="none" xmlns="http://www.w3.org/2000/svg">
		<path d="M0.5 10.0635C0.5 4.54063 4.97715 0.0634766 10.5 0.0634766H40.5V30.0635C40.5 35.5863 36.0229 40.0635 30.5 40.0635H5.5C2.73858 40.0635 0.5 37.8249 0.5 35.0635V10.0635Z" fill="#2D2D2C"/>
		<path d="M0.5 10.0635C0.5 4.54063 4.97715 0.0634766 10.5 0.0634766H40.5V30.0635C40.5 35.5863 36.0229 40.0635 30.5 40.0635H5.5C2.73858 40.0635 0.5 37.8249 0.5 35.0635V10.0635Z" fill="#48C993"/>
		<path d="M16.513 7.56348L11.988 12.101" stroke="white" stroke-width="2" stroke-miterlimit="10" stroke-linecap="round" stroke-linejoin="round"/>
		<path d="M24.4883 7.56348L29.0133 12.101" stroke="white" stroke-width="2" stroke-miterlimit="10" stroke-linecap="round" stroke-linejoin="round"/>
		<path d="M8 14.876C8 12.5635 9.2375 12.376 10.775 12.376H30.225C31.7625 12.376 33 12.5635 33 14.876C33 17.5635 31.7625 17.376 30.225 17.376H10.775C9.2375 17.376 8 17.5635 8 14.876Z" stroke="white" stroke-width="2"/>
		<path d="M9.875 17.5635L11.6375 28.3635C12.0375 30.7885 13 32.5635 16.575 32.5635H24.1125C28 32.5635 28.575 30.8635 29.025 28.5135L31.125 17.5635" stroke="white" stroke-width="2" stroke-linecap="round"/>
		<path d="M20.5 20.8135C20.872 20.8135 21.1738 21.1153 21.1738 21.4873V24.4072H24.085C24.4523 24.4075 24.75 24.7059 24.75 25.0732C24.7499 25.4406 24.4523 25.7381 24.085 25.7383H21.1738V28.6396C21.1738 29.0116 20.872 29.3135 20.5 29.3135C20.128 29.3135 19.8262 29.0116 19.8262 28.6396V25.7383H16.915C16.5477 25.7381 16.2501 25.4406 16.25 25.0732C16.25 24.7059 16.5477 24.4075 16.915 24.4072H19.8262V21.4873C19.8262 21.1153 20.128 20.8135 20.5 20.8135Z" fill="white" stroke="white" stroke-width="0.5"/>
	</symbol>
	<symbol id="arrow-left-shelf" viewBox="0 0 30 31" fill="none" xmlns="http://www.w3.org/2000/svg">
		<rect y="0.333496" width="30" height="30" rx="15" fill="#2D2D2C" fill-opacity="0.25"/>
		<path d="M17.3438 9.86475L11.875 15.3335L17.3438 20.8022" stroke="#2D2D2C" stroke-width="3.125" stroke-miterlimit="10" stroke-linecap="round" stroke-linejoin="round"/>
	</symbol>
	<symbol id="arrow-right-shelf" viewBox="0 0 30 31" fill="none" xmlns="http://www.w3.org/2000/svg">
		<rect width="30" height="30" rx="15" transform="matrix(-1 0 0 1 30 0.333496)" fill="#2D2D2C" fill-opacity="0.25"/>
		<path d="M12.6562 9.86475L18.125 15.3335L12.6562 20.8022" stroke="#2D2D2C" stroke-width="3.125" stroke-miterlimit="10" stroke-linecap="round" stroke-linejoin="round"/>
	</symbol>
	<symbol id="left-arrow-carousel" viewBox="0 0 30 30" fill="none" xmlns="http://www.w3.org/2000/svg">
		<circle cx="15" cy="15" r="15" fill="white" fill-opacity="0.6"/>
		<path d="M17.4573 9.13146C17.5179 9.06411 17.5652 8.98488 17.5967 8.8983C17.6281 8.81172 17.643 8.71948 17.6405 8.62685C17.638 8.53422 17.6182 8.44302 17.5821 8.35844C17.5461 8.27387 17.4945 8.19758 17.4304 8.13393C17.3663 8.07028 17.2908 8.02053 17.2084 7.9875C17.126 7.95447 17.0382 7.93882 16.95 7.94144C16.8618 7.94406 16.775 7.9649 16.6944 8.00277C16.6139 8.04064 16.5413 8.0948 16.4807 8.16215L10.7717 14.5114C10.6538 14.6423 10.5881 14.8158 10.5881 14.996C10.5881 15.1763 10.6538 15.3497 10.7717 15.4807L16.4807 21.8306C16.5409 21.8994 16.6135 21.955 16.6943 21.9941C16.7751 22.0332 16.8625 22.055 16.9515 22.0584C17.0404 22.0617 17.1291 22.0464 17.2123 22.0134C17.2956 21.9805 17.3717 21.9304 17.4364 21.8663C17.5011 21.8021 17.553 21.7251 17.5892 21.6397C17.6253 21.5542 17.6449 21.4621 17.6468 21.3687C17.6487 21.2753 17.633 21.1824 17.6004 21.0954C17.5679 21.0084 17.5192 20.9291 17.4573 20.862L12.1835 14.996L17.4573 9.13146Z" fill="#1D2939"/>
	</symbol>
	<symbol id="right-arrow-carousel" viewBox="0 0 30 30" fill="none" xmlns="http://www.w3.org/2000/svg">
		<circle cx="15" cy="15" r="15" transform="rotate(-180 15 15)" fill="white" fill-opacity="0.6"/>
		<path d="M12.5425 20.8685C12.4819 20.9359 12.4345 21.0151 12.4031 21.1017C12.3716 21.1883 12.3567 21.2805 12.3592 21.3731C12.3617 21.4658 12.3816 21.557 12.4176 21.6416C12.4537 21.7261 12.5052 21.8024 12.5694 21.8661C12.6335 21.9297 12.7089 21.9795 12.7913 22.0125C12.8738 22.0455 12.9616 22.0612 13.0498 22.0586C13.138 22.0559 13.2248 22.0351 13.3053 21.9972C13.3858 21.9594 13.4585 21.9052 13.5191 21.8379L19.228 15.4886C19.3459 15.3577 19.4116 15.1842 19.4116 15.004C19.4116 14.8237 19.3459 14.6503 19.228 14.5193L13.5191 8.1694C13.4589 8.10057 13.3863 8.045 13.3054 8.0059C13.2246 7.9668 13.1372 7.94495 13.0483 7.94163C12.9594 7.93832 12.8707 7.95359 12.7875 7.98657C12.7042 8.01954 12.628 8.06957 12.5633 8.13373C12.4986 8.1979 12.4467 8.27493 12.4106 8.36034C12.3745 8.44576 12.3549 8.53786 12.353 8.6313C12.351 8.72473 12.3668 8.81764 12.3993 8.90463C12.4319 8.99162 12.4805 9.07095 12.5425 9.13801L17.8162 15.004L12.5425 20.8685Z" fill="#1D2939"/>
	</symbol>
	<symbol id="left-arrow-category" viewBox="0 0 30 30" fill="none" xmlns="http://www.w3.org/2000/svg">
		<circle cx="15" cy="15" r="15" fill="white" fill-opacity="0.6"/>
		<path d="M17.4573 9.13146C17.5179 9.06411 17.5652 8.98488 17.5967 8.8983C17.6281 8.81172 17.643 8.71948 17.6405 8.62685C17.638 8.53422 17.6182 8.44302 17.5821 8.35844C17.5461 8.27387 17.4945 8.19758 17.4304 8.13393C17.3663 8.07028 17.2908 8.02053 17.2084 7.9875C17.126 7.95447 17.0382 7.93882 16.95 7.94144C16.8618 7.94406 16.775 7.9649 16.6944 8.00277C16.6139 8.04064 16.5413 8.0948 16.4807 8.16215L10.7717 14.5114C10.6538 14.6423 10.5881 14.8158 10.5881 14.996C10.5881 15.1763 10.6538 15.3497 10.7717 15.4807L16.4807 21.8306C16.5409 21.8994 16.6135 21.955 16.6943 21.9941C16.7751 22.0332 16.8625 22.055 16.9515 22.0584C17.0404 22.0617 17.1291 22.0464 17.2123 22.0134C17.2956 21.9805 17.3717 21.9304 17.4364 21.8663C17.5011 21.8021 17.553 21.7251 17.5892 21.6397C17.6253 21.5542 17.6449 21.4621 17.6468 21.3687C17.6487 21.2753 17.633 21.1824 17.6004 21.0954C17.5679 21.0084 17.5192 20.9291 17.4573 20.862L12.1835 14.996L17.4573 9.13146Z" fill="#1D2939"/>
	</symbol>
	<symbol id="right-arrow-category" viewBox="0 0 30 30" fill="none" xmlns="http://www.w3.org/2000/svg">
		<circle cx="15" cy="15" r="15" transform="rotate(-180 15 15)" fill="white" fill-opacity="0.6"/>
		<path d="M12.5425 20.8685C12.4819 20.9359 12.4345 21.0151 12.4031 21.1017C12.3716 21.1883 12.3567 21.2805 12.3592 21.3731C12.3617 21.4658 12.3816 21.557 12.4176 21.6416C12.4537 21.7261 12.5052 21.8024 12.5694 21.8661C12.6335 21.9297 12.7089 21.9795 12.7913 22.0125C12.8738 22.0455 12.9616 22.0612 13.0498 22.0586C13.138 22.0559 13.2248 22.0351 13.3053 21.9972C13.3858 21.9594 13.4585 21.9052 13.5191 21.8379L19.228 15.4886C19.3459 15.3577 19.4116 15.1842 19.4116 15.004C19.4116 14.8237 19.3459 14.6503 19.228 14.5193L13.5191 8.1694C13.4589 8.10057 13.3863 8.045 13.3054 8.0059C13.2246 7.9668 13.1372 7.94495 13.0483 7.94163C12.9594 7.93832 12.8707 7.95359 12.7875 7.98657C12.7042 8.01954 12.628 8.06957 12.5633 8.13373C12.4986 8.1979 12.4467 8.27493 12.4106 8.36034C12.3745 8.44576 12.3549 8.53786 12.353 8.6313C12.351 8.72473 12.3668 8.81764 12.3993 8.90463C12.4319 8.99162 12.4805 9.07095 12.5425 9.13801L17.8162 15.004L12.5425 20.8685Z" fill="#1D2939"/>
	</symbol>
	<symbol id="arrowup" viewBox="0 0 18 10" fill="none" xmlns="http://www.w3.org/2000/svg">
		<path d="M0.3562 8.01843L8.33509 0.253455C8.43008 0.161289 8.53298 0.0961586 8.6438 0.0580633C8.75462 0.0193537 8.87335 -9.06711e-07 9 -8.94129e-07C9.12665 -8.81547e-07 9.24538 0.0193537 9.3562 0.0580634C9.46702 0.0961587 9.56992 0.161289 9.66491 0.253455L17.6675 8.01843C17.8892 8.23349 18 8.50231 18 8.82489C18 9.14747 17.8813 9.42396 17.6438 9.65438C17.4063 9.88479 17.1293 10 16.8127 10C16.496 10 16.219 9.88479 15.9815 9.65438L9 2.88018L2.01847 9.65438C1.79683 9.86943 1.5239 9.97696 1.19968 9.97696C0.874827 9.97696 0.593667 9.86175 0.3562 9.63134C0.118733 9.40092 -9.07253e-07 9.1321 -8.76732e-07 8.82488C-8.4621e-07 8.51766 0.118734 8.24885 0.3562 8.01843Z" fill="black"/>
	</symbol>
	<symbol id="arrowdown" viewBox="0 0 18 10" fill="none" xmlns="http://www.w3.org/2000/svg">
		<path d="M17.6438 1.98157L9.66491 9.74654C9.56992 9.83871 9.46702 9.90384 9.3562 9.94194C9.24538 9.98065 9.12665 10 9 10C8.87335 10 8.75462 9.98065 8.6438 9.94194C8.53298 9.90384 8.43008 9.83871 8.33509 9.74654L0.332454 1.98157C0.110818 1.76651 1.01389e-07 1.49769 1.05236e-07 1.17511C1.09082e-07 0.852534 0.118734 0.576036 0.356201 0.345622C0.593668 0.115207 0.870712 1.03831e-08 1.18734 1.41588e-08C1.50396 1.79345e-08 1.781 0.115207 2.01847 0.345622L9 7.11982L15.9815 0.345622C16.2032 0.130569 16.4761 0.023041 16.8003 0.023041C17.1252 0.023041 17.4063 0.138249 17.6438 0.368663C17.8813 0.599078 18 0.867895 18 1.17511C18 1.48233 17.8813 1.75115 17.6438 1.98157Z" fill="black"/>
	</symbol>
	<symbol id="lupa" viewBox="0 0 32 32" fill="none" xmlns="http://www.w3.org/2000/svg">
		<rect width="32" height="32" rx="10" fill="black"/>
		<path d="M22.585 21.0636L19.7862 18.4452C20.774 17.3425 21.2696 15.9247 21.1698 14.4876C21.0699 13.0505 20.3822 11.705 19.2501 10.7318C18.118 9.75859 16.6289 9.23277 15.0934 9.26401C13.5579 9.29525 12.0945 9.88114 11.0085 10.8995C9.92248 11.9178 9.29766 13.29 9.26434 14.7298C9.23103 16.1696 9.7918 17.5659 10.8297 18.6274C11.8676 19.689 13.3025 20.3338 14.8351 20.4275C16.3677 20.5211 17.8797 20.0564 19.0558 19.1301L21.8482 21.7546C21.947 21.8442 22.0791 21.8943 22.2166 21.8943C22.3541 21.8943 22.4862 21.8442 22.585 21.7546C22.6821 21.6626 22.7366 21.5385 22.7366 21.4091C22.7366 21.2797 22.6821 21.1555 22.585 21.0636ZM10.323 14.8631C10.323 13.9521 10.6111 13.0615 11.1509 12.3039C11.6907 11.5464 12.458 10.956 13.3556 10.6074C14.2533 10.2587 15.241 10.1675 16.194 10.3452C17.1469 10.523 18.0223 10.9617 18.7093 11.6059C19.3963 12.2501 19.8642 13.0709 20.0538 13.9645C20.2433 14.858 20.146 15.7842 19.7742 16.6259C19.4024 17.4676 18.7727 18.1871 17.9649 18.6932C17.157 19.1994 16.2072 19.4695 15.2356 19.4695C13.9332 19.4679 12.6847 18.9821 11.7638 18.1186C10.8429 17.2551 10.3247 16.0843 10.323 14.8631Z" fill="white"/>
		</symbol>
		<symbol id="ArrowMenuInstitutional" width="25" height="24" viewBox="0 0 25 24" fill="none" xmlns="http://www.w3.org/2000/svg">
		<g clip-path="url(#clip0_4120_35324)"><path d="M4.83293 7.34331C4.38902 7.7995 4.38902 8.53498 4.83293 8.99116L12.3613 16.7277C12.7146 17.0908 13.2854 17.0908 13.6387 16.7277L21.1671 8.99116C21.611 8.53498 21.611 7.7995 21.1671 7.34331C20.7232 6.88713 20.0075 6.88713 19.5635 7.34331L12.9955 14.0837L6.42739 7.334C5.99254 6.88713 5.26778 6.88713 4.83293 7.34331Z" fill="#ffffff"/></g><defs><clipPath id="clip0_4120_35324"><rect width="24" height="24" fill="white" transform="matrix(-1 0 0 -1 24.5 24)"/></clipPath></defs>
	</symbol>
	<symbol id="lupa-busca-vazia" viewBox="0 0 15 14" fill="none" xmlns="http://www.w3.org/2000/svg">
		<path d="M14.3425 13.0793L11.4343 10.1773C12.4607 8.95507 12.9757 7.3837 12.8719 5.79092C12.7682 4.19813 12.0536 2.70691 10.8773 1.62826C9.70094 0.54962 8.15368 -0.0331639 6.5582 0.00145886C4.96272 0.0360816 3.44219 0.685438 2.31375 1.8141C1.18531 2.94276 0.536075 4.46357 0.501459 6.05936C0.466842 7.65515 1.04952 9.2027 2.12795 10.3792C3.20639 11.5558 4.69733 12.2705 6.28981 12.3743C7.88229 12.4781 9.45336 11.963 10.6753 10.9364L13.5768 13.8452C13.6795 13.9445 13.8168 14 13.9597 14C14.1025 14 14.2398 13.9445 14.3425 13.8452C14.4434 13.7433 14.5 13.6057 14.5 13.4622C14.5 13.3188 14.4434 13.1812 14.3425 13.0793ZM1.60149 6.20714C1.60149 5.19738 1.90086 4.2103 2.46175 3.37071C3.02263 2.53112 3.81984 1.87675 4.75256 1.49033C5.68528 1.10391 6.71162 1.0028 7.70179 1.1998C8.69195 1.39679 9.60148 1.88304 10.3154 2.59705C11.0292 3.31106 11.5154 4.22076 11.7123 5.21112C11.9093 6.20148 11.8082 7.22801 11.4219 8.16091C11.0355 9.09381 10.3813 9.89117 9.54184 10.4522C8.70242 11.0132 7.71552 11.3126 6.70595 11.3126C5.35271 11.3108 4.0554 10.7723 3.09851 9.81527C2.14163 8.8582 1.60327 7.56064 1.60149 6.20714Z" fill="black"/>
	</symbol>
	<symbol id="arrow-back-search-error" viewBox="0 0 17 13" fill="none" xmlns="http://www.w3.org/2000/svg">
		<path d="M7.48431 12.7432L0.779373 7.0942C0.677783 7.00861 0.605653 6.91589 0.562986 6.81603C0.520995 6.71617 0.5 6.60918 0.5 6.49506C0.5 6.38094 0.520995 6.27395 0.562986 6.17409C0.605653 6.07424 0.677783 5.98151 0.779373 5.89592L7.48431 0.246898C7.67056 0.0899803 7.9032 0.00781295 8.18224 0.000395038C8.46195 -0.00645227 8.70339 0.0757151 8.90657 0.246898C9.10975 0.403815 9.21574 0.599819 9.22455 0.83491C9.23268 1.07057 9.13515 1.27399 8.93197 1.44518L3.95406 5.63915H15.3067C15.5946 5.63915 15.836 5.72103 16.0311 5.8848C16.2255 6.04913 16.3226 6.25255 16.3226 6.49506C16.3226 6.73757 16.2255 6.94071 16.0311 7.10447C15.836 7.26881 15.5946 7.35097 15.3067 7.35097H3.95406L8.93197 11.5449C9.11822 11.7019 9.21574 11.9016 9.22455 12.1441C9.23268 12.3866 9.13515 12.5863 8.93197 12.7432C8.74572 12.9144 8.50868 13 8.22084 13C7.933 13 7.68749 12.9144 7.48431 12.7432Z" fill="#777777"/>
	</symbol>
	<symbol id="minicartbag" viewBox="0 0 19 21" fill="none" xmlns="http://www.w3.org/2000/svg">
		<g clip-path="url(#clip0_7549_8474)">
			<path d="M16.6076 7.2462H15.105V6.35463C15.105 6.23226 15.105 6.11426 15.0964 5.99188C14.9295 2.65723 12.4979 0 9.52684 0C6.55582 0 4.14561 2.62664 3.96152 5.93944C3.95296 6.07492 3.94868 6.21478 3.94868 6.35026V7.24183H2.38611C1.11893 7.24183 -0.379421 7.99355 0.0872089 9.58876L3.55055 18.6531C3.99577 19.8549 4.57799 21 5.84945 21H13.1529C14.42 21 15.0708 19.9467 15.4518 18.6531L18.9151 9.58876C19.3732 7.96733 17.8877 7.24183 16.6162 7.24183L16.6076 7.2462ZM5.09599 7.2462V6.35463C5.09599 6.22352 5.10027 6.08803 5.10884 5.96129C5.28864 3.36524 7.19797 1.3155 9.52256 1.3155C11.8471 1.3155 13.7864 3.39584 13.9406 6.01811C13.9491 6.13174 13.9491 6.24537 13.9491 6.359V7.25057H5.09599V7.2462Z" fill="#4D5D49"/>
		</g>
		<defs>
			<clipPath id="clip0_7549_8474">
				<rect width="19" height="21" fill="white"/>
			</clipPath>
		</defs>
	</symbol>
	<symbol id="search-drawer" viewBox="0 0 24 24" fill="none" xmlns="http://www.w3.org/2000/svg">
		<path d="M18.781 17.7647L15.5109 14.4706C16.2701 13.4706 16.7372 12.2353 16.7372 10.8824C16.7372 7.64706 14.1095 5 10.8978 5C7.68613 5 5 7.64706 5 10.8824C5 14.1176 7.62774 16.7647 10.8394 16.7647C12.1825 16.7647 13.4672 16.2941 14.4599 15.4706L17.7299 18.7647C17.8467 18.8824 18.0803 19 18.2555 19C18.4307 19 18.6058 18.9412 18.781 18.7647C19.073 18.5294 19.073 18.0588 18.781 17.7647ZM6.45985 10.8824C6.45985 8.47059 8.44526 6.47059 10.8394 6.47059C13.2336 6.47059 15.219 8.47059 15.219 10.8824C15.219 13.2941 13.2336 15.2941 10.8394 15.2941C8.44526 15.2941 6.45985 13.3529 6.45985 10.8824Z" fill="#2C2C2C"/>
	</symbol>
	<symbol id="menu-mobile-dark" viewBox="0 0 24 24" fill="none" xmlns="http://www.w3.org/2000/svg">
		<path fill-rule="evenodd" clip-rule="evenodd" d="M2.25 6C2.25 5.58579 2.58579 5.25 3 5.25H21C21.4142 5.25 21.75 5.58579 21.75 6C21.75 6.41421 21.4142 6.75 21 6.75H3C2.58579 6.75 2.25 6.41421 2.25 6ZM2.25 12C2.25 11.5858 2.58579 11.25 3 11.25H21C21.4142 11.25 21.75 11.5858 21.75 12C21.75 12.4142 21.4142 12.75 21 12.75H3C2.58579 12.75 2.25 12.4142 2.25 12ZM2.25 18C2.25 17.5858 2.58579 17.25 3 17.25H21C21.4142 17.25 21.75 17.5858 21.75 18C21.75 18.4142 21.4142 18.75 21 18.75H3C2.58579 18.75 2.25 18.4142 2.25 18Z" fill="#4D5D49"/>
	</symbol>
	<symbol id="user-dark" viewBox="0 0 24 24" fill="none" xmlns="http://www.w3.org/2000/svg">
		<g clip-path="url(#clip0_10020_2959)">
			<path d="M11.9998 4.5C11.2991 4.49975 10.614 4.70734 10.0312 5.0965C9.44848 5.48566 8.99423 6.03891 8.72595 6.68627C8.45767 7.33363 8.38742 8.04601 8.52406 8.7333C8.66071 9.4206 8.99813 10.0519 9.49363 10.5474C9.98913 11.0429 10.6205 11.3803 11.3078 11.517C11.995 11.6536 12.7074 11.5834 13.3548 11.3151C14.0021 11.0468 14.5554 10.5926 14.9446 10.0098C15.3337 9.42708 15.5413 8.742 15.5411 8.04125C15.5411 7.10205 15.168 6.20132 14.5038 5.53721C13.8397 4.8731 12.939 4.5 11.9998 4.5Z" fill="#4D5D49"/>
			<path d="M17.4862 14.0138C16.8486 13.3744 16.0908 12.8674 15.2566 12.5218C14.4223 12.1762 13.528 11.9989 12.625 12H11.375C9.55164 12 7.80295 12.7243 6.51364 14.0136C5.22433 15.303 4.5 17.0516 4.5 18.875C4.5 19.0408 4.56585 19.1997 4.68306 19.3169C4.80027 19.4342 4.95924 19.5 5.125 19.5H18.875C19.0408 19.5 19.1997 19.4342 19.3169 19.3169C19.4342 19.1997 19.5 19.0408 19.5 18.875C19.5011 17.972 19.3238 17.0777 18.9782 16.2434C18.6326 15.4092 18.1256 14.6514 17.4862 14.0138Z" fill="#4D5D49"/>
		</g>
		<defs>
			<clipPath id="clip0_10020_2959">
				<rect width="16" height="16" fill="white" transform="translate(4 4)"/>
			</clipPath>
		</defs>
	</symbol>
	<symbol id="lupa-dark" viewBox="0 0 26 26" fill="none" xmlns="http://www.w3.org/2000/svg">
		<path d="M20.7497 19.5882L17.0125 15.8235C17.8801 14.6807 18.414 13.2689 18.414 11.7227C18.414 8.02521 15.4108 5 11.7404 5C8.06986 5 5 8.02521 5 11.7227C5 15.4202 8.00313 18.4454 11.6736 18.4454C13.2086 18.4454 14.6767 17.9076 15.8113 16.9664L19.5485 20.7311C19.682 20.8655 19.9489 21 20.1491 21C20.3493 21 20.5495 20.9328 20.7497 20.7311C21.0834 20.4622 21.0834 19.9244 20.7497 19.5882ZM6.6684 11.7227C6.6684 8.96639 8.93743 6.68067 11.6736 6.68067C14.4098 6.68067 16.6788 8.96639 16.6788 11.7227C16.6788 14.479 14.4098 16.7647 11.6736 16.7647C8.93743 16.7647 6.6684 14.5462 6.6684 11.7227Z" fill="#4D5D49"/>
	</symbol>
	<symbol id="minicartbagdark" viewBox="0 0 19 21" fill="none" xmlns="http://www.w3.org/2000/svg">
		<g clip-path="url(#clip0_10020_2979)">
			<path d="M16.6076 7.2462H15.105V6.35463C15.105 6.23226 15.105 6.11426 15.0964 5.99188C14.9295 2.65723 12.4979 0 9.52684 0C6.55582 0 4.14561 2.62664 3.96152 5.93944C3.95296 6.07492 3.94868 6.21478 3.94868 6.35026V7.24183H2.38611C1.11893 7.24183 -0.379421 7.99355 0.0872089 9.58876L3.55055 18.6531C3.99577 19.8549 4.57799 21 5.84945 21H13.1529C14.42 21 15.0708 19.9467 15.4518 18.6531L18.9151 9.58876C19.3732 7.96733 17.8877 7.24183 16.6162 7.24183L16.6076 7.2462ZM5.09599 7.2462V6.35463C5.09599 6.22352 5.10027 6.08803 5.10884 5.96129C5.28864 3.36524 7.19797 1.3155 9.52256 1.3155C11.8471 1.3155 13.7864 3.39584 13.9406 6.01811C13.9491 6.13174 13.9491 6.24537 13.9491 6.359V7.25057H5.09599V7.2462Z" fill="#4D5D49"/>
		</g>
		<defs>
			<clipPath id="clip0_10020_2979">
				<rect width="19" height="21" fill="white"/>
			</clipPath>
		</defs>
	</symbol>
	<symbol id="arrow-down-white" viewBox="0 0 20 20" fill="none" xmlns="http://www.w3.org/2000/svg">
<path fill-rule="evenodd" clip-rule="evenodd" d="M4.55806 7.05806C4.80214 6.81398 5.19786 6.81398 5.44194 7.05806L10 11.6161L14.5581 7.05806C14.8021 6.81398 15.1979 6.81398 15.4419 7.05806C15.686 7.30214 15.686 7.69786 15.4419 7.94194L10.4419 12.9419C10.1979 13.186 9.80214 13.186 9.55806 12.9419L4.55806 7.94194C4.31398 7.69786 4.31398 7.30214 4.55806 7.05806Z" fill="white"/>
</symbol>
<symbol id="user-black" width="28" height="28" viewBox="0 0 28 28" fill="none" xmlns="http://www.w3.org/2000/svg">
<path d="M14 5.25C13.1824 5.24971 12.3832 5.49189 11.7033 5.94591C11.0234 6.39993 10.4935 7.04539 10.1805 7.80064C9.86749 8.5559 9.78552 9.38701 9.94494 10.1889C10.1044 10.9907 10.498 11.7272 11.0761 12.3053C11.6542 12.8834 12.3907 13.2771 13.1926 13.4365C13.9944 13.5959 14.8255 13.5139 15.5808 13.201C16.336 12.888 16.9815 12.358 17.4355 11.6781C17.8895 10.9983 18.1317 10.199 18.1314 9.38146C18.1314 8.28573 17.6962 7.23488 16.9214 6.46008C16.1466 5.68528 15.0957 5.25 14 5.25Z" fill="#363931"/>
<path d="M20.4006 16.3494C19.6567 15.6035 18.7726 15.0119 17.7993 14.6087C16.826 14.2056 15.7827 13.9987 14.7292 14H13.2708C11.1436 14 9.10345 14.8451 7.59925 16.3493C6.09505 17.8535 5.25 19.8936 5.25 22.0208C5.25 22.2142 5.32682 22.3997 5.46357 22.5364C5.60031 22.6732 5.78578 22.75 5.97917 22.75H22.0208C22.2142 22.75 22.3997 22.6732 22.5364 22.5364C22.6732 22.3997 22.75 22.2142 22.75 22.0208C22.7513 20.9673 22.5444 19.924 22.1413 18.9507C21.7381 17.9774 21.1465 17.0933 20.4006 16.3494Z" fill="#363931"/>
</symbol>
<symbol id="user-orange" viewBox="0 0 24 24" fill="none" xmlns="http://www.w3.org/2000/svg">
<g clip-path="url(#clip0_7871_18771)">
<path d="M12.0001 4.5C11.2993 4.49975 10.6142 4.70734 10.0315 5.0965C9.44872 5.48566 8.99447 6.03891 8.7262 6.68627C8.45792 7.33363 8.38766 8.04601 8.52431 8.7333C8.66096 9.4206 8.99837 10.0519 9.49387 10.5474C9.98938 11.0429 10.6207 11.3803 11.308 11.517C11.9953 11.6536 12.7077 11.5834 13.355 11.3151C14.0024 11.0468 14.5556 10.5926 14.9448 10.0098C15.334 9.42708 15.5415 8.742 15.5413 8.04125C15.5413 7.10205 15.1682 6.20132 14.5041 5.53721C13.84 4.8731 12.9392 4.5 12.0001 4.5Z" fill="#CE9680"/>
<path d="M17.4862 14.0138C16.8486 13.3744 16.0908 12.8674 15.2566 12.5218C14.4223 12.1762 13.528 11.9989 12.625 12H11.375C9.55164 12 7.80295 12.7243 6.51364 14.0136C5.22433 15.303 4.5 17.0516 4.5 18.875C4.5 19.0408 4.56585 19.1997 4.68306 19.3169C4.80027 19.4342 4.95924 19.5 5.125 19.5H18.875C19.0408 19.5 19.1997 19.4342 19.3169 19.3169C19.4342 19.1997 19.5 19.0408 19.5 18.875C19.5011 17.972 19.3238 17.0777 18.9782 16.2434C18.6326 15.4092 18.1256 14.6514 17.4862 14.0138Z" fill="#CE9680"/>
</g>
<defs>
<clipPath id="clip0_7871_18771">
<rect width="16" height="16" fill="white" transform="translate(4 4)"/>
</clipPath>
</defs>
</symbol>
<symbol id="vegano" viewBox="0 0 40 40" fill="none" xmlns="http://www.w3.org/2000/svg">
<path d="M1.77832 0.514648C1.92874 0.476978 2.06858 0.518843 2.14551 0.59082L2.1543 0.598633C6.44098 4.4202 11.4367 7.05806 17.418 8.6377V8.63672C22.1974 9.90479 26.0065 11.1992 29.2871 15.4297V15.4307C33.6257 21.0022 34.1564 28.4953 30.6729 34.0527L30.5771 34.2031L30.2783 34.6709L30.7754 34.9189L30.9395 35.001C33.7086 36.486 36.5774 37.8081 39.2588 38.8018L39.3672 38.8418C39.4115 38.8774 39.4453 38.9205 39.4678 38.9717L39.4736 38.9824C39.5057 39.051 39.5128 39.1434 39.4717 39.2529C39.4032 39.4348 39.1803 39.5497 38.9717 39.4785C36.1044 38.42 33.0698 37.0211 30.1836 35.4307L30.166 35.4209L30.0557 35.3662L29.7598 35.2178L29.5078 35.4336L29.4121 35.5156L29.4092 35.5186C28.8056 36.043 28.1239 36.4498 27.3896 36.7314L27.0732 36.8438C23.178 38.1044 19.4846 38.2177 16.1133 37.1973L16.1016 37.1934L16.0889 37.1904L15.9795 37.1631L15.6582 37.083L15.6475 37.0967C14.9455 36.8156 14.2942 36.5264 13.6855 36.2168L13.6709 36.209L13.6553 36.2031L13.5312 36.1445C13.4883 36.1231 13.4445 36.1001 13.4043 36.0771L13.3975 36.0732L13.3906 36.0703L12.9697 35.8408C12.1389 35.3735 11.3662 34.8521 10.6338 34.2656L10.2705 33.9668L10.1562 33.8652L10.1514 33.8604C9.92901 33.6679 9.73143 33.509 9.53418 33.3252C9.47685 33.2684 9.41763 33.2123 9.36426 33.1621C9.3051 33.1065 9.25255 33.0572 9.2041 33.0088C9.15611 32.9609 9.10757 32.9132 9.05957 32.8652C9.01348 32.8192 8.96797 32.7726 8.92188 32.7266L8.79492 32.5879L8.7793 32.5703L8.27148 32.0371C7.85498 31.5673 7.44175 31.0738 7.04297 30.543L6.95996 30.4336L6.95898 30.4307L6.53027 29.8545C6.11957 29.2873 5.75963 28.7469 5.43848 28.2158L5.43652 28.2119L5.32715 28.0342L4.99512 27.4961L4.97266 27.5176C4.91545 27.4123 4.85892 27.3045 4.80176 27.1943H4.81934L4.40234 26.3604L4.39453 26.3467C4.29844 26.1684 4.24629 26.0352 4.12793 25.7988L4.04297 25.6309C2.64039 22.3849 1.63508 18.4653 1.0332 15.7236C0.179504 10.4294 0.35828 5.12319 1.51562 0.78125L1.5166 0.782227C1.5508 0.657041 1.63517 0.563257 1.77832 0.514648ZM1.96973 2.38672L1.91504 2.66016V2.66211C1.01565 7.23576 1.11869 12.9082 2.3916 18.3369C3.66407 23.7635 6.11667 28.9955 9.95996 32.6436L9.96094 32.6445C13.1067 35.6164 16.8209 37.1348 20.9326 37.1348C22.843 37.1348 24.8423 36.7958 26.8867 36.1387L26.8857 36.1377C27.4319 35.9658 27.889 35.6894 28.2539 35.4512L28.4863 35.3027L29.167 34.8623L28.4678 34.4512L28.2373 34.3164H28.2383C21.5692 30.321 15.899 25.337 11.4004 19.4883L11.3984 19.4854L10.9727 18.9297C10.8316 18.743 10.6913 18.5562 10.5547 18.3721L10.5469 18.3604L10.5078 18.3008C10.477 18.2389 10.4688 18.1713 10.4814 18.0996C10.4963 18.0157 10.5314 17.9458 10.5811 17.8926L10.6357 17.8447L10.6455 17.8379C10.8053 17.7184 11.0502 17.7511 11.1748 17.9229C11.4388 18.2971 11.7216 18.6644 11.9873 19.0225L11.9922 19.0293C16.5578 24.9694 22.3113 29.9946 29.082 33.9551V33.9561L29.2197 34.0381L29.6475 34.2949L29.8418 33.9717H29.8467L29.9941 33.7412C33.397 28.41 32.8531 21.238 28.7061 15.8857C25.5534 11.8163 21.7472 10.5634 17.248 9.36816C11.7296 7.90602 7.07682 5.58148 2.99414 2.27441L2.77539 2.09668L2.13281 1.5752L1.96973 2.38672Z" fill="#4D5D49" stroke="#4D5D49"/>
</symbol>
<symbol id="parabenos" viewBox="0 0 40 40" fill="none" xmlns="http://www.w3.org/2000/svg">
<path d="M20 0.5C30.7462 0.500003 39.5 9.25382 39.5 20C39.5 30.7462 30.7462 39.5 20 39.5C9.25382 39.5 0.5 30.7462 0.5 20C0.500001 9.25382 9.25382 0.5 20 0.5ZM25.0791 16.0117L25.2402 16.334L25.3809 16.6162L25.3828 16.6201C26.7398 19.2756 27.373 21.2654 27.373 22.585C27.373 23.5115 27.1775 24.4439 26.7793 25.373L26.7734 25.3867C26.6059 25.811 26.3381 26.3685 26.0049 26.7773L25.9453 26.8379L25.9219 26.8613L25.9014 26.8877C24.538 28.6688 22.4869 29.6884 20.2588 29.6885C18.3066 29.6885 16.4064 28.8649 15.0557 27.4043L15.0547 27.4033L14.7373 27.0625L14.3838 26.6826L14.0176 27.0498L7.31543 33.752L7.74609 34.1016L8.12207 34.4072V34.4062C11.4004 37.1133 15.5415 38.6274 19.79 38.6758L19.8047 38.6904H20.0117C30.3114 38.6904 38.6904 30.3114 38.6904 20.0117C38.6904 15.6898 37.1696 11.4661 34.418 8.13379H34.4189L34.1133 7.75781L33.7637 7.32715L25.0791 16.0117ZM20 1.33301C9.70037 1.33301 1.32131 9.71209 1.32129 20.0117C1.32129 24.5777 3.01277 28.9853 6.07812 32.4248L6.56836 32.9746L6.57422 32.9609L6.74219 33.1543L7.12207 32.7744L13.7256 26.1699L13.9668 25.9297L13.8311 25.6172L13.7139 25.3467C13.3307 24.4594 13.1436 23.5287 13.1436 22.5732C13.1436 21.1982 13.8566 19.0223 15.3076 16.2607L15.3154 16.2461L15.3213 16.2314L15.4043 16.043C15.6688 15.5622 16.313 14.4027 16.7021 13.7617L16.7041 13.7588C17.8726 11.8075 18.9925 10.1509 19.4766 9.48242L19.4805 9.47754C19.8431 8.96402 20.6371 8.95646 21.0156 9.48047V9.48145C21.2803 9.84975 22.6338 11.7744 24.0449 14.1885L24.0479 14.1924L24.3408 14.6855L24.6699 15.2383L25.124 14.7832L32.7861 7.12207L33.166 6.74219L32.7598 6.39062L32.4072 6.08496C28.9797 3.0221 24.5629 1.33301 20 1.33301ZM26.1289 22.9258C26.1288 22.5126 25.818 22.177 25.416 22.1367L25.335 22.1318C24.8816 22.1318 24.5411 22.51 24.541 22.9258C24.541 24.8099 23.0527 26.3575 21.1914 26.4521L21.0107 26.4561C20.5702 26.4561 20.217 26.8095 20.2168 27.25C20.2168 27.6907 20.5701 28.0439 21.0107 28.0439C23.7541 28.0439 25.9998 25.866 26.1113 23.1494L26.1289 23.1328V22.9258Z" fill="#4D5D49" stroke="#4D5D49"/>
</symbol>
<symbol id="cruelty" viewBox="0 0 40 42" fill="none" xmlns="http://www.w3.org/2000/svg">
<path d="M34.3818 35.2643L34.0015 35.9108C34.3269 36.1022 34.7438 36.0219 34.9749 35.7234C35.206 35.4249 35.1791 35.0011 34.9123 34.7341L34.3818 35.2643ZM33.2933 34.9847L32.5938 34.7142C32.5046 34.9449 32.5348 35.2047 32.6747 35.4087C32.8145 35.6128 33.046 35.7347 33.2933 35.7347V34.9847ZM33.533 29.4423L34.2522 29.2297L34.251 29.2257L33.533 29.4423ZM23.5667 21.5932L23.5043 22.3406L23.5046 22.3406L23.5667 21.5932ZM14.5092 15.6414L15.2043 15.3596C15.1852 15.3126 15.1614 15.2676 15.1332 15.2254L14.5092 15.6414ZM14.4792 15.5715L15.2069 15.3896C15.2022 15.3709 15.1968 15.3525 15.1907 15.3342L14.4792 15.5715ZM14.4593 15.5115L15.1708 15.2743C15.1661 15.2604 15.1611 15.2466 15.1556 15.233L14.4593 15.5115ZM14.0299 13.9437L13.2882 14.055C13.2889 14.0597 13.2896 14.0645 13.2904 14.0693L14.0299 13.9437ZM14.2296 13.4045L13.7511 12.8269C13.7468 12.8305 13.7426 12.8341 13.7384 12.8377L14.2296 13.4045ZM22.0089 0.831782L22.7511 0.723894C22.7057 0.411918 22.4701 0.161605 22.1614 0.0974676L22.0089 0.831782ZM17.0157 2.60933L16.5235 2.04345L16.5234 2.04359L17.0157 2.60933ZM12.8415 12.4258L12.1011 12.5457L12.1029 12.5561L12.8415 12.4258ZM12.2723 13.1049V12.3547L12.2588 12.355L12.2723 13.1049ZM4.03364 20.954L3.28779 20.8752L3.28755 20.8775L4.03364 20.954ZM7.399 24.1996V23.4496C7.37607 23.4496 7.35316 23.4506 7.33033 23.4527L7.399 24.1996ZM7.53881 24.1996V24.9496C7.56476 24.9496 7.5907 24.9482 7.61651 24.9455L7.53881 24.1996ZM13.4007 23.2509L13.0192 22.6051L13.0106 22.6103L13.4007 23.2509ZM14.1697 22.9014L14.8098 23.2921C14.8136 23.2859 14.8173 23.2797 14.8208 23.2735L14.1697 22.9014ZM11.4834 24.6789L12.0984 25.1081C12.1057 25.0977 12.1127 25.0872 12.1194 25.0764L11.4834 24.6789ZM13.4107 34.1758L13.8837 33.5937L13.8822 33.5925L13.4107 34.1758ZM13.6204 34.7251L14.3616 34.8403L14.3629 34.8311L13.6204 34.7251ZM10.335 37.9007L10.6135 38.5971C10.6252 38.5924 10.6367 38.5874 10.6482 38.5821L10.335 37.9007ZM10.285 37.9207L10.0065 37.2243C9.9958 37.2286 9.98518 37.2331 9.97467 37.2379L10.285 37.9207ZM7.66863 40.3174L6.95245 40.5402L6.95485 40.5476L7.66863 40.3174ZM8.80706 40.7468L8.85111 39.9981C8.82417 39.9965 8.79717 39.9963 8.77022 39.9977L8.80706 40.7468ZM22.8277 38.0305L22.8991 38.7771C23.2143 38.747 23.4766 38.5221 23.5546 38.2152C23.6326 37.9083 23.5095 37.5855 23.2469 37.4086L22.8277 38.0305ZM19.1628 35.0546L18.4994 35.4046L18.4998 35.4052L19.1628 35.0546ZM18.6135 31.4396L17.8981 31.2145L17.8978 31.2156L18.6135 31.4396ZM25.9335 27.2853L26.2478 27.9664L26.2595 27.9607L25.9335 27.2853ZM18.6834 31.3397L19.3994 31.5632L19.3997 31.5623L18.6834 31.3397ZM22.4383 37.3914L22.7075 36.6914C22.7012 36.6889 22.6948 36.6866 22.6884 36.6843L22.4383 37.3914ZM22.2685 38.5298L22.2417 37.7803L22.2355 37.7805L22.2685 38.5298ZM20.9104 38.5897L20.9373 39.3393L20.9434 39.339L20.9104 38.5897ZM15.8274 39.5584L15.2309 39.1036L15.2245 39.1123L15.8274 39.5584ZM15.4679 40.3273L14.7971 40.6628C14.8067 40.682 14.8172 40.7009 14.8284 40.7193L15.4679 40.3273ZM17.1755 40.597L17.1575 39.8472L17.1558 39.8472L17.1755 40.597ZM26.4028 40.4671V39.7171L26.3971 39.7172L26.4028 40.4671ZM28.9892 40.4472L28.9973 41.1971C29.1648 41.1953 29.3269 41.1375 29.4578 41.0328L28.9892 40.4472ZM30.617 38.9592L31.3174 38.691C31.2256 38.4512 31.0175 38.2751 30.7659 38.2241C30.5143 38.1732 30.254 38.2545 30.0762 38.4396L30.617 38.9592ZM31.5657 40.0777L31.9384 39.4268L31.9299 39.4221L31.5657 40.0777ZM34.3618 35.2443L34.7411 34.5973C34.4157 34.4065 33.9991 34.4872 33.7684 34.7857C33.5377 35.0842 33.5647 35.5077 33.8314 35.7745L34.3618 35.2443ZM14.4992 13.2248L14.0186 12.649L13.6631 12.9457L13.7691 13.3965L14.4992 13.2248ZM14.639 13.754L13.9275 13.9912L14.1712 14.7222L14.8953 14.4589L14.639 13.754ZM15.2981 13.5144L15.5544 14.2192L15.5567 14.2184L15.2981 13.5144ZM26.223 6.06463L26.9399 6.28506L27.1137 5.71979L26.6046 5.41893L26.223 6.06463ZM21.5794 5.25574L21.427 4.52139L21.0634 4.59685L20.903 4.93175L21.5794 5.25574ZM34.3818 35.2643L34.7621 34.6179C34.2867 34.3382 33.7804 34.2347 33.2933 34.2347V34.9847V35.7347C33.5652 35.7347 33.7978 35.7909 34.0015 35.9108L34.3818 35.2643ZM33.2933 34.9847L33.9928 35.2552C34.7502 33.2968 34.8495 31.2496 34.2522 29.2297L33.533 29.4423L32.8138 29.655C33.315 31.35 33.2345 33.0575 32.5938 34.7142L33.2933 34.9847ZM33.533 29.4423L34.251 29.2257C32.9192 24.8114 28.3635 21.2394 23.6289 20.8457L23.5667 21.5932L23.5046 22.3406C27.6576 22.6859 31.6702 25.8646 32.8149 29.659L33.533 29.4423ZM23.5667 21.5932L23.6291 20.8458C19.5415 20.5043 16.4436 18.4172 15.2043 15.3596L14.5092 15.6414L13.8141 15.9231C15.3111 19.6163 18.9838 21.963 23.5043 22.3406L23.5667 21.5932ZM14.5092 15.6414C15.1332 15.2254 15.1333 15.2255 15.1334 15.2256C15.1334 15.2256 15.1335 15.2257 15.1336 15.2258C15.1337 15.226 15.1338 15.2261 15.1339 15.2263C15.1341 15.2266 15.1343 15.2269 15.1345 15.2272C15.1349 15.2278 15.1353 15.2285 15.1357 15.2291C15.1365 15.2303 15.1373 15.2315 15.1381 15.2328C15.1397 15.2352 15.1413 15.2376 15.1428 15.24C15.1458 15.2448 15.1488 15.2497 15.1516 15.2545C15.1573 15.2641 15.1631 15.2745 15.1688 15.286C15.179 15.3064 15.1948 15.3415 15.2069 15.3896L14.4792 15.5715L13.7516 15.7534C13.7736 15.8414 13.8045 15.9114 13.8271 15.9568C13.8391 15.9807 13.8505 16.0012 13.8602 16.0176C13.8651 16.0259 13.8697 16.0334 13.8739 16.04C13.876 16.0433 13.878 16.0464 13.8798 16.0493C13.8808 16.0507 13.8817 16.0521 13.8826 16.0535C13.883 16.0542 13.8835 16.0548 13.8839 16.0555C13.8841 16.0558 13.8843 16.0561 13.8845 16.0564C13.8846 16.0566 13.8847 16.0568 13.8848 16.0569C13.8849 16.057 13.885 16.0571 13.885 16.0571C13.8851 16.0573 13.8852 16.0574 14.5092 15.6414ZM14.4792 15.5715L15.1907 15.3342L15.1708 15.2743L14.4593 15.5115L13.7478 15.7488L13.7677 15.8087L14.4792 15.5715ZM14.4593 15.5115L15.1556 15.233C14.9794 14.7923 14.8521 14.306 14.7693 13.8181L14.0299 13.9437L13.2904 14.0693C13.3874 14.64 13.5397 15.2321 13.7629 15.7901L14.4593 15.5115ZM14.0299 13.9437L14.7716 13.8325C14.7767 13.8666 14.7715 13.8926 14.7649 13.9102C14.7585 13.9275 14.746 13.9494 14.7208 13.9712L14.2296 13.4045L13.7384 12.8377C13.3975 13.1332 13.2195 13.5974 13.2882 14.055L14.0299 13.9437ZM14.2296 13.4045L14.7081 13.982C20.9491 8.81114 23.3934 5.1431 22.7511 0.723894L22.0089 0.831782L21.2667 0.939671C21.7827 4.48948 19.9729 7.672 13.7511 12.8269L14.2296 13.4045ZM22.0089 0.831782L22.1614 0.0974676C20.308 -0.287673 18.3089 0.490476 16.5235 2.04345L17.0157 2.60933L17.508 3.17521C19.0979 1.79224 20.634 1.31212 21.8563 1.5661L22.0089 0.831782ZM17.0157 2.60933L16.5234 2.04359C13.4518 4.71682 11.5408 9.0847 12.1011 12.5457L12.8415 12.4258L13.5819 12.3059C13.1236 9.47558 14.7278 5.59482 17.5081 3.17508L17.0157 2.60933ZM12.8415 12.4258L12.1029 12.5561C12.0922 12.4953 12.1125 12.4421 12.1391 12.4107L12.7117 12.8952L13.2842 13.3796C13.5305 13.0885 13.6507 12.6958 13.5801 12.2955L12.8415 12.4258ZM12.7117 12.8952L12.1391 12.4107C12.1602 12.3858 12.2042 12.3549 12.2723 12.3549V13.1049V13.8549C12.6799 13.8549 13.0434 13.6642 13.2842 13.3796L12.7117 12.8952ZM12.2723 13.1049L12.2588 12.355C9.63343 12.4021 7.50724 13.1029 5.96524 14.573C4.42805 16.0385 3.57377 18.1714 3.2878 20.8752L4.03364 20.954L4.77948 21.0329C5.04275 18.5438 5.80624 16.7971 7.00029 15.6587C8.18952 14.5249 9.90803 13.8975 12.2858 13.8547L12.2723 13.1049ZM4.03364 20.954L3.28755 20.8775C3.15858 22.135 3.34746 23.2858 4.11247 24.0508L4.6428 23.5205L5.17313 22.9902C4.8796 22.6966 4.66902 22.1099 4.77972 21.0306L4.03364 20.954ZM4.6428 23.5205L4.11247 24.0508C4.60974 24.5481 5.24182 24.7854 5.82435 24.8933C6.40819 25.0015 6.99475 24.9899 7.46768 24.9464L7.399 24.1996L7.33033 23.4527C6.93445 23.4891 6.49743 23.4925 6.09762 23.4184C5.6965 23.3441 5.38488 23.2019 5.17313 22.9902L4.6428 23.5205ZM7.399 24.1996V24.9496H7.53881V24.1996V23.4496H7.399V24.1996ZM7.53881 24.1996L7.61651 24.9455C7.94836 24.911 8.37036 24.8931 8.87537 24.8708C9.36967 24.849 9.92784 24.8234 10.4932 24.7717C11.5955 24.6708 12.8534 24.4623 13.7908 23.8914L13.4007 23.2509L13.0106 22.6103C12.3902 22.9881 11.4362 23.1791 10.3565 23.2779C9.83082 23.326 9.30549 23.3504 8.80928 23.3723C8.32378 23.3937 7.84827 23.4133 7.4611 23.4536L7.53881 24.1996ZM13.4007 23.2509L13.7823 23.8966C13.8524 23.8552 13.9567 23.7874 14.0402 23.7339C14.1351 23.6732 14.2259 23.6161 14.301 23.5729C14.3387 23.5513 14.3634 23.5384 14.3767 23.5321C14.4029 23.5197 14.3662 23.5409 14.2954 23.5551C14.2659 23.561 14.1514 23.5832 14.0047 23.5486C13.8172 23.5044 13.5835 23.3623 13.4841 23.0798C13.4079 22.8636 13.458 22.6866 13.4719 22.6406C13.4912 22.5769 13.5143 22.5366 13.5185 22.5293L14.1697 22.9014L14.8208 23.2735C14.845 23.2312 14.8813 23.162 14.9077 23.0749C14.9286 23.0056 14.9796 22.8108 14.899 22.5817C14.795 22.2864 14.5513 22.1364 14.349 22.0887C14.1875 22.0506 14.0535 22.0737 14.0003 22.0844C13.882 22.1081 13.7814 22.1542 13.7324 22.1775C13.6704 22.207 13.6087 22.2408 13.554 22.2722C13.4444 22.3351 13.3267 22.4097 13.2318 22.4704C13.1256 22.5384 13.059 22.5817 13.0192 22.6052L13.4007 23.2509ZM14.1697 22.9014L13.5295 22.5106C13.4994 22.5599 13.4034 22.6633 13.181 22.8101C12.9707 22.9488 12.7123 23.0852 12.4269 23.2282C12.1589 23.3625 11.8458 23.5127 11.5956 23.6535C11.4672 23.7258 11.3337 23.8073 11.214 23.8976C11.1021 23.982 10.9557 24.1081 10.8474 24.2814L11.4834 24.6789L12.1194 25.0764C12.0859 25.1299 12.065 25.1346 12.1171 25.0953C12.1614 25.0619 12.2305 25.0174 12.3314 24.9606C12.5396 24.8434 12.7914 24.7233 13.0989 24.5693C13.3889 24.4239 13.7165 24.2538 14.0071 24.0621C14.2856 23.8783 14.6053 23.6273 14.8098 23.2921L14.1697 22.9014ZM11.4834 24.6789L10.8683 24.2497C8.25373 27.9962 10.1032 32.4668 12.9393 34.7591L13.4107 34.1758L13.8822 33.5925C11.4056 31.5908 10.0994 27.9725 12.0984 25.1081L11.4834 24.6789ZM13.4107 34.1758L12.9378 34.7579C12.8853 34.7153 12.8721 34.6601 12.878 34.619L13.6204 34.7251L14.3629 34.8311C14.4287 34.3706 14.2556 33.896 13.8837 33.5937L13.4107 34.1758ZM13.6204 34.7251L12.8793 34.6098C12.6706 35.9519 11.7014 36.4472 10.0217 37.2192L10.335 37.9007L10.6482 38.5821C12.1841 37.8762 14.0111 37.0932 14.3615 34.8403L13.6204 34.7251ZM10.335 37.9007L10.0565 37.2043L10.0065 37.2243L10.285 37.9207L10.5635 38.617L10.6135 38.5971L10.335 37.9007ZM10.285 37.9207L9.97467 37.2379C9.53086 37.4396 9.06738 37.6557 8.57046 37.9146L8.91691 38.5797L9.26336 39.2449C9.72511 39.0044 10.1604 38.8011 10.5954 38.6034L10.285 37.9207ZM8.91691 38.5797L8.57046 37.9146C7.99167 38.216 7.54357 38.6194 7.25604 39.0524C6.98789 39.4562 6.78658 40.0069 6.95248 40.5402L7.66863 40.3174L8.38477 40.0946C8.41087 40.1785 8.35435 40.11 8.50563 39.8822C8.63752 39.6835 8.88346 39.4428 9.26336 39.2449L8.91691 38.5797ZM7.66863 40.3174L6.95485 40.5476C7.09943 40.9958 7.46088 41.2424 7.78696 41.3629C8.11062 41.4825 8.48046 41.5137 8.8439 41.4959L8.80706 40.7468L8.77022 39.9977C8.52451 40.0098 8.37506 39.9811 8.30676 39.9559C8.24087 39.9315 8.33769 39.9485 8.38241 40.0871L7.66863 40.3174ZM8.80706 40.7468L8.76302 41.4955C8.99429 41.5091 9.30381 41.4618 9.59758 41.4078C9.91888 41.3487 10.3177 41.2618 10.7727 41.1572C11.6669 40.9515 12.8772 40.6537 14.1751 40.3512C16.8177 39.7355 20.0266 39.0516 22.8991 38.7771L22.8277 38.0305L22.7564 37.2839C19.7769 37.5686 16.4848 38.2729 13.8347 38.8904C12.4862 39.2046 11.3523 39.4847 10.4365 39.6954C9.98644 39.7989 9.61385 39.8797 9.32631 39.9326C9.18255 39.959 9.06756 39.977 8.97932 39.9875C8.88352 39.999 8.84799 39.9979 8.85111 39.9981L8.80706 40.7468ZM22.8277 38.0305L23.2469 37.4086C22.7778 37.0925 21.9976 36.5796 21.273 36.0362C20.9112 35.7648 20.5761 35.4953 20.3093 35.2485C20.0273 34.9876 19.8781 34.803 19.8258 34.704L19.1628 35.0546L18.4998 35.4052C18.6771 35.7406 18.9861 36.0678 19.2908 36.3496C19.6106 36.6455 19.9909 36.9496 20.373 37.2362C21.1363 37.8087 21.9589 38.3494 22.4086 38.6525L22.8277 38.0305ZM19.1628 35.0546L19.8261 34.7047C19.494 34.0751 19.2889 33.622 19.2008 33.1765C19.1175 32.7554 19.1313 32.2965 19.3293 31.6636L18.6135 31.4396L17.8978 31.2156C17.6365 32.0506 17.5903 32.7652 17.7293 33.4675C17.8633 34.1454 18.1625 34.7659 18.4994 35.4046L19.1628 35.0546ZM18.6135 31.4396L19.329 31.6646C19.4967 31.1313 19.944 30.6051 20.6361 30.1074C21.3189 29.6164 22.1677 29.2053 23.0095 28.8782C23.847 28.5527 24.6503 28.3209 25.2245 28.1796C25.5122 28.1088 25.7353 28.0625 25.8708 28.0387C25.9455 28.0255 25.9712 28.0233 25.964 28.0238C25.961 28.024 25.9426 28.0254 25.9158 28.0249C25.9024 28.0247 25.8774 28.0238 25.8456 28.0199C25.8211 28.017 25.7534 28.0079 25.6717 27.9765C25.6234 27.958 25.3668 27.8581 25.2461 27.5562C25.1003 27.1914 25.2834 26.9034 25.3538 26.8144C25.4287 26.7198 25.5081 26.6678 25.5315 26.6526C25.5652 26.6308 25.5933 26.6167 25.6074 26.6099L25.9335 27.2853L26.2595 27.9607C26.2782 27.9517 26.3099 27.9356 26.3464 27.912C26.3726 27.895 26.4541 27.8413 26.5302 27.7452C26.6018 27.6547 26.7853 27.3654 26.639 26.9995C26.5178 26.6964 26.2599 26.5956 26.2095 26.5762C26.0722 26.5235 25.949 26.5253 25.9435 26.5252C25.9063 26.5245 25.8744 26.5264 25.8548 26.5278C25.7814 26.5332 25.6927 26.547 25.6112 26.5613C25.4341 26.5924 25.177 26.6466 24.8661 26.7231C24.2433 26.8763 23.3763 27.1264 22.4662 27.48C21.5605 27.832 20.5842 28.2971 19.7604 28.8896C18.9458 29.4754 18.2047 30.2399 17.8981 31.2145L18.6135 31.4396ZM25.9335 27.2853L25.6192 26.6043C25.6767 26.5778 25.7285 26.5648 25.6921 26.5755C25.6828 26.5782 25.6665 26.5828 25.6401 26.5901C25.5848 26.6053 25.5182 26.6233 25.4185 26.6506C25.2279 26.7028 24.9604 26.7773 24.6403 26.8731C24.0017 27.0643 23.1479 27.342 22.2687 27.7006C21.3943 28.0571 20.4677 28.5044 19.6973 29.0422C18.9458 29.5669 18.2365 30.2507 17.9672 31.1172L18.6834 31.3397L19.3997 31.5623C19.5199 31.1755 19.8953 30.7334 20.5559 30.2722C21.1977 29.8242 22.0105 29.4258 22.8351 29.0895C23.6547 28.7553 24.4593 28.4931 25.0705 28.3101C25.3753 28.2189 25.6306 28.1477 25.8147 28.0973C25.9024 28.0733 25.986 28.0507 26.0383 28.0363C26.0657 28.0287 26.0924 28.0213 26.1148 28.0147C26.1257 28.0115 26.14 28.0072 26.1549 28.0024C26.1593 28.0009 26.2011 27.9878 26.2477 27.9663L25.9335 27.2853ZM18.6834 31.3397L17.9675 31.1162C17.6002 32.2929 17.5922 33.6792 18.2432 34.9724C18.8978 36.2726 20.1708 37.3849 22.1882 38.0985L22.4383 37.3914L22.6884 36.6843C20.9509 36.0697 20.0269 35.1797 19.583 34.2979C19.1356 33.4092 19.1276 32.4337 19.3994 31.5632L18.6834 31.3397ZM22.4383 37.3914L22.169 38.0914C22.1425 38.0812 22.1158 38.0604 22.0972 38.0294C22.078 37.9974 22.0703 37.959 22.0753 37.9244L22.8177 38.0305L23.5602 38.1366C23.6513 37.4988 23.2821 36.9124 22.7075 36.6914L22.4383 37.3914ZM22.8177 38.0305L22.0753 37.9244C22.0855 37.8526 22.1505 37.7836 22.2417 37.7803L22.2685 38.5298L22.2953 39.2793C22.9458 39.2561 23.47 38.7677 23.5602 38.1366L22.8177 38.0305ZM22.2685 38.5298L22.2355 37.7805L20.8773 37.8405L20.9104 38.5897L20.9434 39.339L22.3016 39.2791L22.2685 38.5298ZM20.9104 38.5897L20.8835 37.8402C19.6437 37.8847 18.4787 37.9278 17.547 38.0663C17.0788 38.136 16.6356 38.2342 16.2524 38.3844C15.8721 38.5335 15.497 38.7547 15.231 39.1036L15.8274 39.5584L16.4238 40.0132C16.4623 39.9626 16.5616 39.8743 16.7998 39.7809C17.0352 39.6887 17.3546 39.6115 17.7677 39.55C18.5986 39.4264 19.6705 39.3847 20.9373 39.3393L20.9104 38.5897ZM15.8274 39.5584L15.2245 39.1123C15.0117 39.3998 14.876 39.6446 14.7982 39.8549C14.7593 39.9599 14.7305 40.0683 14.7183 40.1774C14.7122 40.2317 14.7092 40.2957 14.715 40.3652C14.7197 40.4221 14.7342 40.537 14.7971 40.6628L15.4679 40.3273L16.1387 39.9919C16.1705 40.0556 16.1865 40.1112 16.1949 40.147C16.2038 40.1851 16.2079 40.2175 16.2099 40.2415C16.2138 40.2888 16.2112 40.3243 16.209 40.3437C16.2047 40.3829 16.1976 40.3952 16.205 40.3754C16.2196 40.336 16.2735 40.2163 16.4303 40.0045L15.8274 39.5584ZM15.4679 40.3273C14.8284 40.7193 14.8291 40.7204 14.8298 40.7215C14.8301 40.7219 14.8308 40.723 14.8312 40.7238C14.8322 40.7253 14.8331 40.7268 14.8341 40.7283C14.836 40.7313 14.8379 40.7344 14.8399 40.7374C14.8439 40.7435 14.8479 40.7495 14.8522 40.7556C14.8606 40.7677 14.8695 40.7799 14.8789 40.792C14.8978 40.8162 14.9185 40.84 14.9412 40.8633C14.9866 40.9101 15.0388 40.9538 15.0977 40.9941C15.2147 41.0741 15.3584 41.141 15.5335 41.1945C15.8776 41.2995 16.3937 41.3678 17.1953 41.3467L17.1755 40.597L17.1558 39.8472C16.4395 39.8661 16.1017 39.7996 15.9715 39.7598C15.9094 39.7409 15.9108 39.7329 15.9448 39.7561C15.9621 39.768 15.9877 39.7878 16.0168 39.8178C16.0313 39.8327 16.0465 39.8499 16.0618 39.8696C16.0695 39.8795 16.0772 39.8899 16.0848 39.9008C16.0886 39.9063 16.0924 39.912 16.0961 39.9177C16.098 39.9206 16.0999 39.9235 16.1018 39.9265C16.1027 39.9279 16.1036 39.9294 16.1046 39.9309C16.105 39.9317 16.1057 39.9328 16.1059 39.9332C16.1066 39.9343 16.1073 39.9354 15.4679 40.3273ZM17.1755 40.597L17.1935 41.3467C21.3507 41.2471 23.8015 41.2371 26.4086 41.2171L26.4028 40.4671L26.3971 39.7172C23.7913 39.7371 21.3288 39.7472 17.1575 39.8472L17.1755 40.597ZM26.4028 40.4671V41.2171C27.2267 41.2171 28.0703 41.2071 28.9973 41.1971L28.9892 40.4472L28.9812 39.6972C28.0507 39.7072 27.2167 39.7171 26.4028 39.7171V40.4671ZM28.9892 40.4472L29.4578 41.0328C30.0841 40.5318 30.6473 40.0102 31.1578 39.4788L30.617 38.9592L30.0762 38.4396C29.608 38.9269 29.0928 39.4039 28.5207 39.8615L28.9892 40.4472ZM30.617 38.9592L29.9166 39.2275C30.1521 39.8424 30.581 40.3886 31.2015 40.7333L31.5657 40.0777L31.9299 39.4221C31.6516 39.2674 31.4414 39.0148 31.3174 38.691L30.617 38.9592ZM31.5657 40.0777L31.193 40.7285C32.796 41.6465 34.7923 40.8695 35.7211 39.253L35.0709 38.8793L34.4206 38.5057C33.8116 39.5655 32.6722 39.8471 31.9384 39.4268L31.5657 40.0777ZM35.0709 38.8793L35.7211 39.253C36.6473 37.6413 36.3323 35.5301 34.7411 34.5973L34.3618 35.2443L33.9826 35.8914C34.7082 36.3167 35.0323 37.4411 34.4206 38.5057L35.0709 38.8793ZM34.3618 35.2443L33.8314 35.7745L33.8513 35.7945L34.3818 35.2643L34.9123 34.7341L34.8923 34.7142L34.3618 35.2443ZM14.4992 13.2248L13.7691 13.3965C13.8058 13.5525 13.8543 13.7715 13.9275 13.9912L14.639 13.754L15.3505 13.5169C15.3039 13.377 15.2725 13.2366 15.2293 13.053L14.4992 13.2248ZM14.639 13.754L14.8953 14.4589C15.0052 14.4189 15.115 14.379 15.2249 14.339C15.3347 14.2991 15.4446 14.2592 15.5544 14.2192L15.2981 13.5144L15.0418 12.8095C14.9319 12.8495 14.8221 12.8894 14.7122 12.9293C14.6024 12.9693 14.4925 13.0092 14.3827 13.0492L14.639 13.754ZM15.2981 13.5144L15.5567 14.2184C19.0451 12.9368 21.567 12.0123 23.3504 10.9062C25.2009 9.75845 26.2903 8.39752 26.9399 6.28506L26.223 6.06463L25.5062 5.84419C24.9674 7.59641 24.1145 8.66713 22.5597 9.63147C20.9378 10.6375 18.5914 11.5055 15.0395 12.8104L15.2981 13.5144ZM26.223 6.06463L26.6046 5.41893C25.936 5.02385 24.9312 4.7482 24.0096 4.59459C23.0925 4.44175 22.0951 4.38274 21.427 4.52139L21.5794 5.25574L21.7319 5.99009C22.1223 5.90905 22.8974 5.92993 23.763 6.07418C24.6238 6.21766 25.4116 6.4563 25.8415 6.71032L26.223 6.06463ZM21.5794 5.25574L20.903 4.93175C19.8357 7.16002 17.7403 9.54263 14.0186 12.649L14.4992 13.2248L14.9798 13.8005C18.7478 10.6555 21.0463 8.10492 22.2559 5.57974L21.5794 5.25574Z" fill="#4D5D49"/>
</symbol>
<symbol id="multifuncional" viewBox="0 0 40 40" fill="none" xmlns="http://www.w3.org/2000/svg">
<mask id="path-1-inside-1_9345_10837" fill="white">
<path d="M33.3169 24.1599C33.3169 24.1599 33.4055 24.0909 33.4449 24.0514L39.7539 17.7251C39.9114 17.5672 40 17.3501 40 17.1329C40 16.9158 39.9114 16.6987 39.7539 16.5408C39.4291 16.2151 38.8976 16.2151 38.563 16.5408L33.6811 21.436V19.8865C33.6811 10.5698 26.122 3 16.8406 3C7.55906 3 0 10.5797 0 19.8865C0 29.1933 7.55906 37 16.8406 37C21.2795 36.9704 25.6201 35.2136 28.75 32.0554C29.0748 31.7298 29.0748 31.1968 28.75 30.8612C28.4252 30.5356 27.8937 30.5356 27.5591 30.8612C24.7539 33.6938 20.8563 35.3123 16.8799 35.3123H16.8406C8.48425 35.3123 1.68308 28.3939 1.68308 19.8865C1.68308 11.3791 8.48426 4.67779 16.8504 4.67779C25.2165 4.67779 32.0177 11.4975 32.0177 19.8865V21.436L27.1358 16.5408C26.8209 16.225 26.2697 16.225 25.9449 16.5408C25.6201 16.8665 25.6201 17.3994 25.9449 17.735L32.2539 24.0612C32.2539 24.0612 32.3327 24.1402 32.3819 24.1698L32.4705 24.2192C32.4705 24.2192 32.5492 24.2586 32.5886 24.2685L32.6969 24.2981C32.7953 24.3179 32.9134 24.3179 33.0217 24.2981L33.1201 24.2685C33.1201 24.2685 33.1988 24.2389 33.2382 24.2192"/>
</mask>
<path d="M33.3169 24.1599C33.3169 24.1599 33.4055 24.0909 33.4449 24.0514L39.7539 17.7251C39.9114 17.5672 40 17.3501 40 17.1329C40 16.9158 39.9114 16.6987 39.7539 16.5408C39.4291 16.2151 38.8976 16.2151 38.563 16.5408L33.6811 21.436V19.8865C33.6811 10.5698 26.122 3 16.8406 3C7.55906 3 0 10.5797 0 19.8865C0 29.1933 7.55906 37 16.8406 37C21.2795 36.9704 25.6201 35.2136 28.75 32.0554C29.0748 31.7298 29.0748 31.1968 28.75 30.8612C28.4252 30.5356 27.8937 30.5356 27.5591 30.8612C24.7539 33.6938 20.8563 35.3123 16.8799 35.3123H16.8406C8.48425 35.3123 1.68308 28.3939 1.68308 19.8865C1.68308 11.3791 8.48426 4.67779 16.8504 4.67779C25.2165 4.67779 32.0177 11.4975 32.0177 19.8865V21.436L27.1358 16.5408C26.8209 16.225 26.2697 16.225 25.9449 16.5408C25.6201 16.8665 25.6201 17.3994 25.9449 17.735L32.2539 24.0612C32.2539 24.0612 32.3327 24.1402 32.3819 24.1698L32.4705 24.2192C32.4705 24.2192 32.5492 24.2586 32.5886 24.2685L32.6969 24.2981C32.7953 24.3179 32.9134 24.3179 33.0217 24.2981L33.1201 24.2685C33.1201 24.2685 33.1988 24.2389 33.2382 24.2192" fill="#4D5D49"/>
<path d="M33.4449 24.0514L32.7368 23.3452V23.3452L33.4449 24.0514ZM39.7539 17.7251L40.462 18.4312V18.4312L39.7539 17.7251ZM38.563 16.5408L37.8655 15.8242L37.8602 15.8294L37.8549 15.8346L38.563 16.5408ZM33.6811 21.436H32.6811V23.8549L34.3892 22.1421L33.6811 21.436ZM16.8406 37V38L16.8472 38L16.8406 37ZM28.75 32.0554L28.0419 31.3493L28.0397 31.3515L28.75 32.0554ZM28.75 30.8612L29.4685 30.1658L29.4633 30.1604L29.4581 30.1551L28.75 30.8612ZM27.5591 30.8612L26.8616 30.1446L26.855 30.151L26.8485 30.1576L27.5591 30.8612ZM32.0177 21.436L31.3096 22.1421L33.0177 23.8549V21.436H32.0177ZM27.1358 16.5408L27.8439 15.8346V15.8346L27.1358 16.5408ZM25.9449 16.5408L25.2478 15.8238L25.2422 15.8292L25.2368 15.8346L25.9449 16.5408ZM25.9449 17.735L25.2264 18.4305L25.2315 18.4358L25.2368 18.4411L25.9449 17.735ZM32.2539 24.0612L31.5459 24.7674L31.5459 24.7674L32.2539 24.0612ZM32.3819 24.1698L31.8664 25.0267L31.8807 25.0353L31.8952 25.0434L32.3819 24.1698ZM32.4705 24.2192L31.9838 25.0927L32.0028 25.1033L32.0223 25.1131L32.4705 24.2192ZM32.5886 24.2685L32.8524 23.3039L32.8421 23.3011L32.8317 23.2985L32.5886 24.2685ZM32.6969 24.2981L32.4331 25.2627L32.4664 25.2718L32.5002 25.2786L32.6969 24.2981ZM33.0217 24.2981L33.201 25.2819L33.2561 25.2719L33.3097 25.2557L33.0217 24.2981ZM33.1201 24.2685L33.4081 25.2261L33.4405 25.2164L33.4721 25.2045L33.1201 24.2685ZM33.3169 24.1599C33.932 24.9484 33.932 24.9484 33.932 24.9484C33.932 24.9484 33.932 24.9484 33.9321 24.9484C33.9321 24.9483 33.9321 24.9483 33.9322 24.9483C33.9322 24.9482 33.9323 24.9482 33.9324 24.9481C33.9326 24.948 33.9328 24.9478 33.933 24.9476C33.9334 24.9473 33.934 24.9469 33.9346 24.9464C33.9358 24.9455 33.9373 24.9442 33.9392 24.9428C33.9429 24.9399 33.9479 24.9359 33.9539 24.9312C33.9656 24.9218 33.982 24.9086 34.0005 24.8935C34.0263 24.8723 34.0939 24.8167 34.1529 24.7575L33.4449 24.0514L32.7368 23.3452C32.7565 23.3255 32.7601 23.3242 32.7318 23.3474C32.7232 23.3545 32.715 23.3611 32.7089 23.3659C32.706 23.3682 32.7037 23.37 32.7024 23.371C32.7018 23.3715 32.7014 23.3718 32.7013 23.3719C32.7013 23.3719 32.7013 23.3719 32.7014 23.3718C32.7014 23.3718 32.7015 23.3718 32.7016 23.3717C32.7016 23.3717 32.7017 23.3716 32.7017 23.3716C32.7018 23.3716 32.7018 23.3715 32.7018 23.3715C32.7018 23.3715 32.7019 23.3715 32.7019 23.3715C32.7019 23.3715 32.7019 23.3714 33.3169 24.1599ZM33.4449 24.0514L34.1529 24.7575L40.462 18.4312L39.7539 17.7251L39.0459 17.019L32.7368 23.3452L33.4449 24.0514ZM39.7539 17.7251L40.462 18.4312C40.8064 18.086 41 17.6149 41 17.1329H40H39C39 17.1063 39.0052 17.0853 39.0119 17.0691C39.0187 17.0528 39.0293 17.0356 39.0459 17.019L39.7539 17.7251ZM40 17.1329H41C41 16.651 40.8064 16.1799 40.462 15.8346L39.7539 16.5408L39.0459 17.2469C39.0293 17.2303 39.0187 17.2131 39.0119 17.1968C39.0052 17.1806 39 17.1596 39 17.1329H40ZM39.7539 16.5408L40.462 15.8346C39.7407 15.1114 38.5825 15.1264 37.8655 15.8242L38.563 16.5408L39.2605 17.2574C39.2128 17.3038 39.1175 17.3188 39.0459 17.2469L39.7539 16.5408ZM38.563 16.5408L37.8549 15.8346L32.973 20.7299L33.6811 21.436L34.3892 22.1421L39.2711 17.2469L38.563 16.5408ZM33.6811 21.436H34.6811V19.8865H33.6811H32.6811V21.436H33.6811ZM33.6811 19.8865H34.6811C34.6811 10.0197 26.6765 2 16.8406 2V3V4C25.5676 4 32.6811 11.1199 32.6811 19.8865H33.6811ZM16.8406 3V2C7.0042 2 -1 10.03 -1 19.8865H0H1C1 11.1294 8.11391 4 16.8406 4V3ZM0 19.8865H-1C-1 29.7256 6.98697 38 16.8406 38V37V36C8.13114 36 1 28.661 1 19.8865H0ZM16.8406 37L16.8472 38C21.5403 37.9687 26.137 36.1127 29.4603 32.7594L28.75 32.0554L28.0397 31.3515C25.1032 34.3146 21.0188 35.9721 16.8339 36L16.8406 37ZM28.75 32.0554L29.4581 32.7616C30.1778 32.0399 30.1629 30.8831 29.4685 30.1658L28.75 30.8612L28.0315 31.5567C27.9867 31.5105 27.9718 31.4196 28.0419 31.3493L28.75 32.0554ZM28.75 30.8612L29.4581 30.1551C28.7368 29.4319 27.5786 29.4468 26.8616 30.1446L27.5591 30.8612L28.2565 31.5779C28.2088 31.6243 28.1136 31.6393 28.0419 31.5674L28.75 30.8612ZM27.5591 30.8612L26.8485 30.1576C24.2318 32.7999 20.5902 34.3123 16.8799 34.3123V35.3123V36.3123C21.1224 36.3123 25.2761 34.5876 28.2696 31.5649L27.5591 30.8612ZM16.8799 35.3123V34.3123H16.8406V35.3123V36.3123H16.8799V35.3123ZM16.8406 35.3123V34.3123C9.05288 34.3123 2.68308 27.8581 2.68308 19.8865H1.68308H0.683078C0.683078 28.9297 7.91563 36.3123 16.8406 36.3123V35.3123ZM1.68308 19.8865H2.68308C2.68308 11.9339 9.03403 5.67779 16.8504 5.67779V4.67779V3.67779C7.93449 3.67779 0.683078 10.8243 0.683078 19.8865H1.68308ZM16.8504 4.67779V5.67779C24.6617 5.67779 31.0177 12.0472 31.0177 19.8865H32.0177H33.0177C33.0177 10.9478 25.7714 3.67779 16.8504 3.67779V4.67779ZM32.0177 19.8865H31.0177V21.436H32.0177H33.0177V19.8865H32.0177ZM32.0177 21.436L32.7258 20.7299L27.8439 15.8346L27.1358 16.5408L26.4278 17.2469L31.3096 22.1421L32.0177 21.436ZM27.1358 16.5408L27.8439 15.8346C27.1323 15.1211 25.9546 15.1365 25.2478 15.8238L25.9449 16.5408L26.642 17.2577C26.6003 17.2983 26.5612 17.3039 26.5441 17.3039C26.5271 17.3039 26.4787 17.298 26.4278 17.2469L27.1358 16.5408ZM25.9449 16.5408L25.2368 15.8346C24.5171 16.5564 24.532 17.7131 25.2264 18.4305L25.9449 17.735L26.6634 17.0395C26.7082 17.0858 26.7231 17.1766 26.653 17.2469L25.9449 16.5408ZM25.9449 17.735L25.2368 18.4411L31.5459 24.7674L32.2539 24.0612L32.962 23.3551L26.653 17.0288L25.9449 17.735ZM32.2539 24.0612C31.5459 24.7674 31.5459 24.7675 31.546 24.7675C31.546 24.7675 31.546 24.7676 31.5461 24.7676C31.5461 24.7676 31.5462 24.7677 31.5463 24.7678C31.5464 24.7679 31.5465 24.768 31.5466 24.7682C31.5469 24.7684 31.5472 24.7687 31.5475 24.7691C31.5482 24.7697 31.5489 24.7704 31.5497 24.7712C31.5513 24.7728 31.5532 24.7747 31.5555 24.7769C31.56 24.7814 31.5658 24.787 31.5727 24.7937C31.5862 24.8067 31.6052 24.8248 31.6276 24.8451C31.6527 24.8679 31.7489 24.956 31.8664 25.0267L32.3819 24.1698L32.8974 23.3129C32.9657 23.354 32.9979 23.3878 32.9714 23.3638C32.9679 23.3606 32.9642 23.3571 32.9614 23.3544C32.9607 23.3538 32.9602 23.3533 32.9599 23.353C32.9595 23.3526 32.9594 23.3525 32.9594 23.3525C32.9594 23.3525 32.9596 23.3527 32.96 23.3531C32.9602 23.3533 32.9605 23.3536 32.9608 23.3539C32.961 23.3541 32.9612 23.3542 32.9613 23.3544C32.9614 23.3545 32.9616 23.3546 32.9617 23.3548C32.9617 23.3548 32.9618 23.3549 32.9618 23.3549C32.9618 23.3549 32.9619 23.355 32.9619 23.355C32.9619 23.355 32.962 23.3551 32.2539 24.0612ZM32.3819 24.1698L31.8952 25.0434L31.9838 25.0927L32.4705 24.2192L32.9571 23.3456L32.8686 23.2962L32.3819 24.1698ZM32.4705 24.2192C32.0223 25.1131 32.0223 25.1131 32.0224 25.1131C32.0224 25.1131 32.0224 25.1132 32.0225 25.1132C32.0225 25.1132 32.0226 25.1132 32.0226 25.1133C32.0228 25.1133 32.0229 25.1134 32.023 25.1135C32.0233 25.1136 32.0236 25.1138 32.0239 25.1139C32.0246 25.1142 32.0253 25.1146 32.0261 25.115C32.0277 25.1158 32.0297 25.1168 32.0319 25.1179C32.0364 25.1201 32.0423 25.123 32.0491 25.1263C32.0625 25.1327 32.0815 25.1417 32.1035 25.1516C32.1216 25.1598 32.2274 25.2089 32.3454 25.2385L32.5886 24.2685L32.8317 23.2985C32.9104 23.3182 32.9571 23.3426 32.9261 23.3286C32.9234 23.3274 32.9203 23.326 32.9177 23.3247C32.9165 23.3242 32.9159 23.3238 32.9159 23.3239C32.916 23.3239 32.9162 23.324 32.9166 23.3242C32.9169 23.3243 32.9171 23.3245 32.9175 23.3246C32.9176 23.3247 32.9178 23.3248 32.918 23.3249C32.9181 23.325 32.9182 23.325 32.9183 23.3251C32.9184 23.3251 32.9185 23.3251 32.9185 23.3251C32.9185 23.3252 32.9186 23.3252 32.9186 23.3252C32.9186 23.3252 32.9187 23.3252 32.4705 24.2192ZM32.5886 24.2685L32.3248 25.2331L32.4331 25.2627L32.6969 24.2981L32.9606 23.3335L32.8524 23.3039L32.5886 24.2685ZM32.6969 24.2981L32.5002 25.2786C32.7341 25.3255 32.9804 25.3221 33.201 25.2819L33.0217 24.2981L32.8423 23.3143C32.8496 23.313 32.8532 23.3129 32.8556 23.3129C32.8573 23.3129 32.8608 23.313 32.8662 23.3135C32.8715 23.314 32.8807 23.3151 32.8935 23.3176L32.6969 24.2981ZM33.0217 24.2981L33.3097 25.2557L33.4081 25.2261L33.1201 24.2685L32.832 23.3109L32.7336 23.3405L33.0217 24.2981ZM33.1201 24.2685C33.4721 25.2045 33.4721 25.2045 33.4721 25.2045C33.4721 25.2045 33.4721 25.2045 33.4722 25.2045C33.4722 25.2045 33.4722 25.2044 33.4723 25.2044C33.4724 25.2044 33.4724 25.2044 33.4725 25.2043C33.4727 25.2043 33.4729 25.2042 33.4731 25.2041C33.4735 25.204 33.4741 25.2038 33.4746 25.2035C33.4758 25.2031 33.4773 25.2025 33.4791 25.2019C33.4826 25.2005 33.4873 25.1987 33.4928 25.1966C33.5039 25.1923 33.5192 25.1863 33.5367 25.1794C33.5613 25.1695 33.6256 25.1436 33.6864 25.1131L33.2382 24.2192L32.79 23.3252C32.8114 23.3145 32.8167 23.3133 32.7921 23.3231C32.7849 23.326 32.7781 23.3286 32.7732 23.3306C32.7708 23.3315 32.769 23.3322 32.768 23.3325C32.7676 23.3327 32.7673 23.3328 32.7673 23.3328C32.7673 23.3328 32.7674 23.3328 32.7675 23.3327C32.7676 23.3327 32.7677 23.3327 32.7678 23.3326C32.7678 23.3326 32.7679 23.3326 32.7679 23.3326C32.768 23.3326 32.768 23.3325 32.768 23.3325C32.768 23.3325 32.7681 23.3325 32.7681 23.3325C32.7681 23.3325 32.7681 23.3325 33.1201 24.2685Z" fill="#4D5D49" mask="url(#path-1-inside-1_9345_10837)"/>
</symbol>
<symbol id="bagpdp" viewBox="0 0 24 24" fill="none" xmlns="http://www.w3.org/2000/svg">
<g clip-path="url(#clip0_7156_9214)">
<path d="M17.9224 9.51865H16.7534V8.83921C16.7534 8.74596 16.7534 8.65603 16.7467 8.56278C16.6168 6.02156 14.7251 3.99658 12.4137 3.99658C10.1023 3.99658 8.22717 5.99825 8.08396 8.52281C8.07729 8.62606 8.07396 8.73264 8.07396 8.83588V9.51532H6.85831C5.87246 9.51532 4.70677 10.0882 5.0698 11.3038L7.76422 18.2114C8.1106 19.1273 8.56356 19.9999 9.55273 19.9999H15.2347C16.2205 19.9999 16.7268 19.1972 17.0232 18.2114L19.7176 11.3038C20.074 10.0682 18.9183 9.51532 17.9291 9.51532L17.9224 9.51865ZM8.96655 9.51865V8.83921C8.96655 8.7393 8.96988 8.63605 8.97654 8.53946C9.11643 6.56111 10.6019 4.99908 12.4104 4.99908C14.2188 4.99908 15.7276 6.58443 15.8475 8.58276C15.8541 8.66935 15.8541 8.75595 15.8541 8.84254V9.52198H8.96655V9.51865Z" fill="#FAFAFA"/>
</g>
<defs>
<clipPath id="clip0_7156_9214">
<rect width="14.7777" height="16" fill="white" transform="translate(5 4)"/>
</clipPath>
</defs>
</symbol>
<symbol id="heartpdp" viewBox="0 0 21 16" fill="none" xmlns="http://www.w3.org/2000/svg">
<path d="M17.8017 6.63722L10.6762 13.1493C10.5712 13.2453 10.4027 13.2453 10.2977 13.1493L3.17067 6.63722C2.09718 5.65615 1.98924 4.06697 2.98879 3.02103C3.75029 2.22374 4.93615 1.91158 6.10279 2.25482C6.5035 2.37239 6.86133 2.58725 7.15853 2.85887L10.1942 5.63318C10.3553 5.78047 10.6156 5.78182 10.7767 5.63318C11.448 5.01967 13.1026 3.50751 13.8124 2.85887C14.1096 2.58725 14.4674 2.37239 14.8681 2.25482C16.0362 1.91293 17.2206 2.22374 17.9821 3.02103C18.9802 4.06697 18.8737 5.65615 17.8002 6.63722M19.4829 1.38861C18.4331 0.429156 17.0107 -0.0681384 15.5143 0.00888815C14.2146 0.0751039 12.9976 0.612938 12.0779 1.45347L10.6762 2.73455C10.5712 2.83049 10.4027 2.83049 10.2977 2.73455L8.90184 1.45888C7.9289 0.569695 6.62623 0.0237529 5.25258 0.000780095C3.8464 -0.0221927 2.51859 0.462939 1.51903 1.36158C-0.546614 3.21968 -0.481554 6.28993 1.56783 8.16289L9.90139 15.7791C10.2237 16.0736 10.7472 16.0736 11.071 15.7791L19.4829 8.09127C21.5057 6.24263 21.5057 3.23589 19.4829 1.38726V1.38861Z" fill="#4D5D49"/>
</symbol>
	<symbol id="pix" viewBox="0 0 49 32" fill="none" xmlns="http://www.w3.org/2000/svg">
		<path d="M20.3406 22.0724V14.0428C20.3406 13.3334 20.6224 12.6531 21.124 12.1515C21.6256 11.6498 22.3059 11.368 23.0153 11.368L25.3859 11.3713C26.0934 11.3728 26.7715 11.6549 27.2712 12.1557C27.771 12.6566 28.0516 13.3353 28.0515 14.0428V15.7516C28.0515 16.461 27.7697 17.1414 27.2681 17.6431C26.7665 18.1447 26.0862 18.4266 25.3768 18.4267H22.0262" stroke="currentColor" stroke-linecap="round" stroke-linejoin="round"/>
		<path d="M28.7141 11.3676H29.7425C30.0337 11.3676 30.3129 11.4833 30.5188 11.6892C30.7247 11.8951 30.8404 12.1743 30.8404 12.4655V18.4631" stroke="currentColor" stroke-linecap="round" stroke-linejoin="round"/>
		<path d="M30.6194 10.4384L30.1532 9.97175C30.1257 9.94427 30.1038 9.91163 30.089 9.87571C30.0741 9.83978 30.0664 9.80128 30.0664 9.76239C30.0664 9.72351 30.0741 9.685 30.089 9.64908C30.1038 9.61316 30.1257 9.58052 30.1532 9.55303L30.6194 9.08678C30.6751 9.03117 30.7505 8.99994 30.8292 8.99994C30.9079 8.99994 30.9833 9.03117 31.039 9.08678L31.5048 9.55303C31.5323 9.58052 31.5541 9.61316 31.569 9.64908C31.5839 9.685 31.5916 9.72351 31.5916 9.76239C31.5916 9.80128 31.5839 9.83978 31.569 9.87571C31.5541 9.91163 31.5323 9.94427 31.5048 9.97175L31.0369 10.4384C31.0094 10.4659 30.9767 10.4878 30.9408 10.5027C30.9048 10.5176 30.8663 10.5252 30.8273 10.5252C30.7884 10.5252 30.7499 10.5176 30.7139 10.5027C30.678 10.4878 30.6453 10.4659 30.6178 10.4384" fill="currentColor"/>
		<path d="M32.8145 11.3622H33.8342C34.3587 11.362 34.8619 11.5702 35.2329 11.9409L37.6183 14.3263C37.6918 14.3999 37.779 14.4582 37.875 14.498C37.971 14.5378 38.0739 14.5583 38.1778 14.5583C38.2817 14.5583 38.3846 14.5378 38.4806 14.498C38.5766 14.4582 38.6638 14.3999 38.7373 14.3263L41.114 11.95C41.2976 11.7664 41.5157 11.6208 41.7556 11.5215C41.9955 11.4222 42.2527 11.3712 42.5124 11.3713H43.3415" stroke="currentColor" stroke-linecap="round" stroke-linejoin="round"/>
		<path d="M32.8145 18.4107H33.8342C34.3587 18.4108 34.8618 18.2027 35.2329 17.832L37.6183 15.4466C37.7668 15.2983 37.968 15.215 38.1778 15.215C38.3876 15.215 38.5888 15.2983 38.7373 15.4466L41.114 17.8233C41.485 18.194 41.9879 18.4021 42.5124 18.402H43.3415" stroke="currentColor" stroke-linecap="round" stroke-linejoin="round"/>
		<path d="M14.2607 19.9342C14.0091 19.9352 13.7598 19.8862 13.5272 19.7902C13.2947 19.6942 13.0834 19.5531 12.9057 19.375L10.9485 17.4166C10.8793 17.3504 10.7872 17.3134 10.6914 17.3134C10.5957 17.3134 10.5036 17.3504 10.4343 17.4166L8.47054 19.3804C8.29294 19.5587 8.08176 19.7001 7.8492 19.7964C7.61663 19.8927 7.3673 19.9419 7.11559 19.9413H6.73242L9.21249 22.4213C9.58445 22.7925 10.0885 23.001 10.6139 23.001C11.1394 23.001 11.6434 22.7925 12.0154 22.4213L14.5004 19.9359L14.2607 19.9342Z" fill="currentColor"/>
		<path d="M7.11601 13.0132C7.36771 13.0125 7.61706 13.0617 7.84962 13.158C8.08219 13.2543 8.29337 13.3957 8.47095 13.5741L10.4348 15.5383C10.503 15.6064 10.5955 15.6446 10.6919 15.6446C10.7882 15.6446 10.8807 15.6064 10.949 15.5383L12.9057 13.5815C13.0832 13.4029 13.2943 13.2613 13.5269 13.165C13.7595 13.0686 14.0089 13.0194 14.2607 13.0202H14.4963L12.0113 10.5352C11.8272 10.3511 11.6088 10.2051 11.3683 10.1054C11.1278 10.0058 10.8701 9.95453 10.6098 9.95453C10.3495 9.95453 10.0918 10.0058 9.85132 10.1054C9.61085 10.2051 9.39238 10.3511 9.20836 10.5352L6.73242 13.0132H7.11601Z" fill="currentColor"/>
		<path d="M16.5517 15.0762L15.05 13.5745C15.0162 13.5883 14.98 13.5956 14.9434 13.596H14.2605C13.9052 13.5969 13.5646 13.738 13.3127 13.9887L11.356 15.9442C11.1797 16.1201 10.9409 16.2189 10.6919 16.2189C10.4429 16.2189 10.2041 16.1201 10.0279 15.9442L8.06367 13.9812C7.81189 13.7304 7.47127 13.5891 7.11587 13.5881H6.27761C6.24306 13.5873 6.20892 13.5805 6.17675 13.5679L4.66556 15.0762C4.29439 15.4481 4.08594 15.9521 4.08594 16.4776C4.08594 17.0031 4.29439 17.5071 4.66556 17.8791L6.17345 19.3869C6.20555 19.3741 6.23973 19.3672 6.2743 19.3667H7.11587C7.47126 19.3656 7.81187 19.2244 8.06367 18.9736L10.0275 17.0098C10.3825 16.6551 11.0013 16.6551 11.356 17.0098L13.3127 18.9662C13.5646 19.2168 13.9052 19.3579 14.2605 19.3588H14.9434C14.98 19.3591 15.0162 19.3664 15.05 19.3803L16.5517 17.8786C16.7358 17.6946 16.8818 17.4762 16.9815 17.2357C17.0811 16.9952 17.1324 16.7375 17.1324 16.4772C17.1324 16.2169 17.0811 15.9592 16.9815 15.7187C16.8818 15.4783 16.7358 15.2602 16.5517 15.0762Z" fill="currentColor"/>
	</symbol>
	<symbol id="pluswhite" width="24" height="24" viewBox="0 0 24 24" fill="none" xmlns="http://www.w3.org/2000/svg">
<path fill-rule="evenodd" clip-rule="evenodd" d="M4.25 12C4.25 11.5858 4.58579 11.25 5 11.25L11.25 11.25L11.25 5C11.25 4.58578 11.5858 4.25 12 4.25C12.4142 4.25 12.75 4.58578 12.75 5L12.75 11.25L19 11.25C19.4142 11.25 19.75 11.5858 19.75 12C19.75 12.4142 19.4142 12.75 19 12.75L12.75 12.75L12.75 19C12.75 19.4142 12.4142 19.75 12 19.75C11.5858 19.75 11.25 19.4142 11.25 19L11.25 12.75L5 12.75C4.58579 12.75 4.25 12.4142 4.25 12Z" fill="#FAFAFA"/>
</symbol>
<symbol id="bag-shop-the-look" viewBox="0 0 24 24" fill="none" xmlns="http://www.w3.org/2000/svg">
<g clip-path="url(#clip0_9387_12019)">
<path d="M17.9227 9.51865H16.7536V8.83921C16.7536 8.74596 16.7536 8.65603 16.747 8.56278C16.6171 6.02156 14.7253 3.99658 12.4139 3.99658C10.1025 3.99658 8.22741 5.99825 8.0842 8.52281C8.07754 8.62606 8.07421 8.73264 8.07421 8.83588V9.51532H6.85855C5.87271 9.51532 4.70701 10.0882 5.07004 11.3038L7.76447 18.2114C8.11084 19.1273 8.5638 19.9999 9.55298 19.9999H15.2349C16.2208 19.9999 16.727 19.1972 17.0234 18.2114L19.7178 11.3038C20.0742 10.0682 18.9185 9.51532 17.9293 9.51532L17.9227 9.51865ZM8.9668 9.51865V8.83921C8.9668 8.7393 8.97013 8.63605 8.97679 8.53946C9.11667 6.56111 10.6021 4.99908 12.4106 4.99908C14.2191 4.99908 15.7278 6.58443 15.8477 8.58276C15.8544 8.66935 15.8544 8.75595 15.8544 8.84254V9.52198H8.9668V9.51865Z" fill="#FAFAFA"/>
</g>
<defs>
<clipPath id="clip0_9387_12019">
<rect width="14.7777" height="16" fill="white" transform="translate(5 4)"/>
</clipPath>
</defs>
</symbol>
<symbol id="bag-cards" viewBox="0 0 15 16" fill="none" xmlns="http://www.w3.org/2000/svg">
<path d="M12.9205 5.51865H11.7514V4.83921C11.7514 4.74596 11.7514 4.65603 11.7448 4.56278C11.6149 2.02156 9.72313 -0.00341797 7.41173 -0.00341797C5.10032 -0.00341797 3.22522 1.99825 3.082 4.52281C3.07534 4.62606 3.07201 4.73264 3.07201 4.83588V5.51532H1.85636C0.870512 5.51532 -0.295184 6.08817 0.0678471 7.30382L2.76227 14.2114C3.10865 15.1273 3.5616 15.9999 4.55078 15.9999H10.2327C11.2186 15.9999 11.7248 15.1972 12.0212 14.2114L14.7156 7.30382C15.072 6.06819 13.9163 5.51532 12.9271 5.51532L12.9205 5.51865ZM3.9646 5.51865V4.83921C3.9646 4.7393 3.96793 4.63605 3.97459 4.53946C4.11447 2.56111 5.5999 0.99908 7.4084 0.99908C9.21689 0.99908 10.7256 2.58443 10.8455 4.58276C10.8522 4.66935 10.8522 4.75595 10.8522 4.84254V5.52198H3.9646V5.51865Z" fill="#D5D8C2"/>
</symbol>
<symbol id="star-konfidency" viewBox="0 0 14 13" fill="none" xmlns="http://www.w3.org/2000/svg">
<g clip-path="url(#clip0_9387_11906)">
<path d="M13.7354 5.7737C13.9759 5.54628 14.0605 5.21321 13.9562 4.90361C13.8518 4.59402 13.5826 4.37246 13.2499 4.32551L9.77601 3.83544C9.58696 3.80903 9.42363 3.69312 9.33893 3.52731L7.78422 0.47246C7.63601 0.180474 7.33504 0 6.9993 0C6.66355 0 6.3641 0.181941 6.21438 0.47246L4.66118 3.52731C4.57648 3.69312 4.41315 3.80903 4.2241 3.83544L0.75019 4.32551C0.418981 4.37246 0.148267 4.59402 0.0439132 4.90361C-0.0604403 5.21321 0.0257648 5.54628 0.264719 5.7737L2.77828 8.15068C2.9159 8.2798 2.97791 8.46614 2.94464 8.64955L2.35179 12.0067C2.29432 12.328 2.42892 12.6449 2.69963 12.8371C2.85238 12.9457 3.03235 13 3.21233 13C3.35146 13 3.4906 12.9677 3.62067 12.9017L6.72858 11.317C6.89797 11.2305 7.10063 11.2305 7.2685 11.317L10.3764 12.9017C10.6744 13.0528 11.0267 13.0279 11.2975 12.8371C11.5682 12.6464 11.7028 12.328 11.6453 12.0067L11.0524 8.64955C11.0207 8.46614 11.0827 8.2798 11.2203 8.15068L13.7339 5.7737H13.7354Z" fill="#CE9680"/>
</g>
<defs>
<clipPath id="clip0_9387_11906">
<rect width="14" height="13" fill="white"/>
</clipPath>
</defs>
</symbol>


</svg>
