<svg style="display:none" xmlns="http://www.w3.org/2000/svg" xmlns:xlink="http://www.w3.org/1999/xlink" version="1.1">
	<symbol id="shopping_bag" xmlns="http://www.w3.org/2000/svg" viewBox="0 -960 960 960" fill="currentColor"><path d="M240-80q-33 0-56.5-23.5T160-160v-480q0-33 23.5-56.5T240-720h80q0-66 47-113t113-47q66 0 113 47t47 113h80q33 0 56.5 23.5T800-640v480q0 33-23.5 56.5T720-80H240Zm0-80h480v-480h-80v80q0 17-11.5 28.5T600-520q-17 0-28.5-11.5T560-560v-80H400v80q0 17-11.5 28.5T360-520q-17 0-28.5-11.5T320-560v-80h-80v480Zm160-560h160q0-33-23.5-56.5T480-800q-33 0-56.5 23.5T400-720ZM240-160v-480 480Z"/></symbol>
	<symbol id="menu_mobile" viewBox="0 0 26 20" fill="none" xmlns="http://www.w3.org/2000/svg">
		<g clip-path="url(#clip0_5002_9213)">
			<path d="M0.625131 1.81899C0.548748 1.82248 0.473815 1.84066 0.404612 1.87251C0.335409 1.90435 0.273292 1.94923 0.221807 2.00458C0.170323 2.05994 0.13048 2.12467 0.104554 2.1951C0.0786278 2.26553 0.0671265 2.34027 0.070707 2.41505C0.0742874 2.48983 0.0928793 2.56318 0.125421 2.63093C0.157963 2.69867 0.203817 2.75948 0.260364 2.80987C0.316911 2.86027 0.383045 2.89926 0.454987 2.92463C0.526929 2.95 0.603271 2.96124 0.679653 2.95772H26.2687C26.3457 2.95879 26.4222 2.94485 26.4938 2.91671C26.5653 2.88858 26.6304 2.84681 26.6852 2.79383C26.7401 2.74085 26.7837 2.67773 26.8134 2.60812C26.8432 2.53851 26.8585 2.46381 26.8585 2.38835C26.8585 2.3129 26.8432 2.2382 26.8134 2.16859C26.7837 2.09898 26.7401 2.03585 26.6852 1.98287C26.6304 1.9299 26.5653 1.88813 26.4938 1.85999C26.4222 1.83186 26.3457 1.81792 26.2687 1.81899H0.679653C0.661489 1.81815 0.643295 1.81815 0.625131 1.81899ZM0.625131 10.3595C0.548748 10.363 0.473815 10.3812 0.404612 10.413C0.335409 10.4449 0.273292 10.4897 0.221807 10.5451C0.170323 10.6005 0.13048 10.6652 0.104554 10.7356C0.0786278 10.806 0.0671265 10.8808 0.070707 10.9556C0.0742874 11.0303 0.0928793 11.1037 0.125421 11.1714C0.157963 11.2392 0.203817 11.3 0.260364 11.3504C0.316911 11.4008 0.383045 11.4398 0.454987 11.4651C0.526929 11.4905 0.603271 11.5018 0.679653 11.4982H26.2687C26.3457 11.4993 26.4222 11.4854 26.4938 11.4572C26.5653 11.4291 26.6304 11.3873 26.6852 11.3343C26.7401 11.2814 26.7837 11.2182 26.8134 11.1486C26.8432 11.079 26.8585 11.0043 26.8585 10.9289C26.8585 10.8534 26.8432 10.7787 26.8134 10.7091C26.7837 10.6395 26.7401 10.5764 26.6852 10.5234C26.6304 10.4704 26.5653 10.4286 26.4938 10.4005C26.4222 10.3724 26.3457 10.3584 26.2687 10.3595H0.679653C0.661489 10.3587 0.643295 10.3587 0.625131 10.3595ZM0.625131 18.9C0.548748 18.9035 0.473815 18.9217 0.404612 18.9535C0.335409 18.9854 0.273292 19.0303 0.221807 19.0856C0.170323 19.141 0.13048 19.2057 0.104554 19.2761C0.0786278 19.3466 0.0671265 19.4213 0.070707 19.4961C0.0742874 19.5709 0.0928793 19.6442 0.125421 19.712C0.157963 19.7797 0.203817 19.8405 0.260364 19.8909C0.316911 19.9413 0.383045 19.9803 0.454987 20.0057C0.526929 20.031 0.603271 20.0423 0.679653 20.0388H26.2687C26.3457 20.0398 26.4222 20.0259 26.4938 19.9977C26.5653 19.9696 26.6304 19.9278 26.6852 19.8749C26.7401 19.8219 26.7837 19.7588 26.8134 19.6891C26.8432 19.6195 26.8585 19.5448 26.8585 19.4694C26.8585 19.3939 26.8432 19.3192 26.8134 19.2496C26.7837 19.18 26.7401 19.1169 26.6852 19.0639C26.6304 19.0109 26.5653 18.9692 26.4938 18.941C26.4222 18.9129 26.3457 18.899 26.2687 18.9H0.679653C0.661489 18.8992 0.643295 18.8992 0.625131 18.9Z" fill="black"/>
		</g>
		<defs>
			<clipPath id="clip0_5002_9213">
				<rect width="26" height="20" fill="white"/>
			</clipPath>
		</defs>
	</symbol>
	<symbol id="minicart" viewBox="0 0 22 26" fill="none" xmlns="http://www.w3.org/2000/svg">
		<path d="M19.7711 6.55778C19.7421 5.92222 19.2789 5.43111 18.7 5.43111H16.5V5.28667C16.5 2.36889 14.0974 0 11.1447 0H10.8553C7.90263 0 5.5 2.36889 5.5 5.28667V5.43111H3.3C2.72105 5.43111 2.25789 5.92222 2.22895 6.55778L0 22.9956V23.0822C0 24.6711 1.33158 26 2.98158 26H19.0474C20.6684 26 22 24.6711 22 23.0533V23.0244L19.7711 6.55778ZM6.68684 5.28667C6.68684 3.00444 8.56842 1.18444 10.8553 1.18444H11.1447C13.4316 1.18444 15.3132 3.03333 15.3132 5.28667V5.43111H6.68684V5.28667ZM19.0184 24.8156H2.98158C1.99737 24.8156 1.21579 24.0356 1.18684 23.0822L3.41579 6.67333V6.58667H5.5V10.2556C5.5 10.5733 5.76053 10.8333 6.10789 10.8333C6.42632 10.8333 6.71579 10.5733 6.71579 10.2556V6.61556H15.3421V10.2844C15.3421 10.6022 15.6026 10.8622 15.95 10.8622C16.2974 10.8622 16.5579 10.6022 16.5579 10.2844V6.61556H18.6421L20.8132 23.1111C20.7842 24.0644 20.0026 24.8156 19.0184 24.8156Z" fill="black"/>
	</symbol>
	<symbol id="menu" xmlns="http://www.w3.org/2000/svg" viewBox="0 -960 960 960" fill="currentColor"><path d="M120-240v-80h720v80H120Zm0-200v-80h720v80H120Zm0-200v-80h720v80H120Z"/></symbol>
	<symbol id="account_circle" xmlns="http://www.w3.org/2000/svg" viewBox="0 -960 960 960" fill="currentColor"><path d="M234-276q51-39 114-61.5T480-360q69 0 132 22.5T726-276q35-41 54.5-93T800-480q0-133-93.5-226.5T480-800q-133 0-226.5 93.5T160-480q0 59 19.5 111t54.5 93Zm246-164q-59 0-99.5-40.5T340-580q0-59 40.5-99.5T480-720q59 0 99.5 40.5T620-580q0 59-40.5 99.5T480-440Zm0 360q-83 0-156-31.5T197-197q-54-54-85.5-127T80-480q0-83 31.5-156T197-763q54-54 127-85.5T480-880q83 0 156 31.5T763-763q54 54 85.5 127T880-480q0 83-31.5 156T763-197q-54 54-127 85.5T480-80Zm0-80q53 0 100-15.5t86-44.5q-39-29-86-44.5T480-280q-53 0-100 15.5T294-220q39 29 86 44.5T480-160Zm0-360q26 0 43-17t17-43q0-26-17-43t-43-17q-26 0-43 17t-17 43q0 26 17 43t43 17Zm0-60Zm0 360Z"/></symbol>
	<symbol id="close" xmlns="http://www.w3.org/2000/svg" viewBox="0 -960 960 960" fill="currentColor"><path d="m256-200-56-56 224-224-224-224 56-56 224 224 224-224 56 56-224 224 224 224-56 56-224-224-224 224Z"/></symbol>
	<symbol id="chevron-right" xmlns="http://www.w3.org/2000/svg" viewBox="0 -960 960 960" fill="currentColor"><path d="M504-480 320-664l56-56 240 240-240 240-56-56 184-184Z"/></symbol>
	<symbol id="favorite" xmlns="http://www.w3.org/2000/svg" viewBox="0 -960 960 960" fill="currentColor"><path d="m480-120-58-52q-101-91-167-157T150-447.5Q111-500 95.5-544T80-634q0-94 63-157t157-63q52 0 99 22t81 62q34-40 81-62t99-22q94 0 157 63t63 157q0 46-15.5 90T810-447.5Q771-395 705-329T538-172l-58 52Zm0-108q96-86 158-147.5t98-107q36-45.5 50-81t14-70.5q0-60-40-100t-100-40q-47 0-87 26.5T518-680h-76q-15-41-55-67.5T300-774q-60 0-100 40t-40 100q0 35 14 70.5t50 81q36 45.5 98 107T480-228Zm0-273Z"/></symbol>
	<symbol id="home_pin" xmlns="http://www.w3.org/2000/svg" viewBox="0 -960 960 960" fill="currentColor"><path d="M360-440h80v-110h80v110h80v-190l-120-80-120 80v190Zm120 254q122-112 181-203.5T720-552q0-109-69.5-178.5T480-800q-101 0-170.5 69.5T240-552q0 71 59 162.5T480-186Zm0 106Q319-217 239.5-334.5T160-552q0-150 96.5-239T480-880q127 0 223.5 89T800-552q0 100-79.5 217.5T480-80Zm0-480Z"/></symbol>
	<symbol id="call" xmlns="http://www.w3.org/2000/svg" viewBox="0 -960 960 960" fill="currentColor"><path d="M798-120q-125 0-247-54.5T329-329Q229-429 174.5-551T120-798q0-18 12-30t30-12h162q14 0 25 9.5t13 22.5l26 140q2 16-1 27t-11 19l-97 98q20 37 47.5 71.5T387-386q31 31 65 57.5t72 48.5l94-94q9-9 23.5-13.5T670-390l138 28q14 4 23 14.5t9 23.5v162q0 18-12 30t-30 12ZM241-600l66-66-17-94h-89q5 41 14 81t26 79Zm358 358q39 17 79.5 27t81.5 13v-88l-94-19-67 67ZM241-600Zm358 358Z"/></symbol>
	<symbol id="local_shipping" xmlns="http://www.w3.org/2000/svg" viewBox="0 -960 960 960" fill="currentColor"><path d="M240-160q-50 0-85-35t-35-85H40v-440q0-33 23.5-56.5T120-800h560v160h120l120 160v200h-80q0 50-35 85t-85 35q-50 0-85-35t-35-85H360q0 50-35 85t-85 35Zm0-80q17 0 28.5-11.5T280-280q0-17-11.5-28.5T240-320q-17 0-28.5 11.5T200-280q0 17 11.5 28.5T240-240ZM120-360h32q17-18 39-29t49-11q27 0 49 11t39 29h272v-360H120v360Zm600 120q17 0 28.5-11.5T760-280q0-17-11.5-28.5T720-320q-17 0-28.5 11.5T680-280q0 17 11.5 28.5T720-240Zm-40-200h170l-90-120h-80v120ZM360-540Z"/></symbol>
	<symbol id="pan_zoom" xmlns="http://www.w3.org/2000/svg" viewBox="0 -960 960 960" fill="currentColor"><path d="M120-120v-240h80v104l124-124 56 56-124 124h104v80H120Zm516-460-56-56 124-124H600v-80h240v240h-80v-104L636-580Z"/></symbol>
	<symbol id="share" xmlns="http://www.w3.org/2000/svg" viewBox="0 -960 960 960" fill="currentColor"><path d="M720-80q-50 0-85-35t-35-85q0-7 1-14.5t3-13.5L322-392q-17 15-38 23.5t-44 8.5q-50 0-85-35t-35-85q0-50 35-85t85-35q23 0 44 8.5t38 23.5l282-164q-2-6-3-13.5t-1-14.5q0-50 35-85t85-35q50 0 85 35t35 85q0 50-35 85t-85 35q-23 0-44-8.5T638-672L356-508q2 6 3 13.5t1 14.5q0 7-1 14.5t-3 13.5l282 164q17-15 38-23.5t44-8.5q50 0 85 35t35 85q0 50-35 85t-85 35Zm0-640q17 0 28.5-11.5T760-760q0-17-11.5-28.5T720-800q-17 0-28.5 11.5T680-760q0 17 11.5 28.5T720-720ZM240-440q17 0 28.5-11.5T280-480q0-17-11.5-28.5T240-520q-17 0-28.5 11.5T200-480q0 17 11.5 28.5T240-440Zm480 280q17 0 28.5-11.5T760-200q0-17-11.5-28.5T720-240q-17 0-28.5 11.5T680-200q0 17 11.5 28.5T720-160Zm0-600ZM240-480Zm480 280Z"/></symbol>
	<symbol id="sell" xmlns="http://www.w3.org/2000/svg" viewBox="0 -960 960 960" fill="currentColor"><path d="M856-390 570-104q-12 12-27 18t-30 6q-15 0-30-6t-27-18L103-457q-11-11-17-25.5T80-513v-287q0-33 23.5-56.5T160-880h287q16 0 31 6.5t26 17.5l352 353q12 12 17.5 27t5.5 30q0 15-5.5 29.5T856-390ZM513-160l286-286-353-354H160v286l353 354ZM260-640q25 0 42.5-17.5T320-700q0-25-17.5-42.5T260-760q-25 0-42.5 17.5T200-700q0 25 17.5 42.5T260-640Zm220 160Z"/></symbol>
	<symbol id="check-circle" xmlns="http://www.w3.org/2000/svg" viewBox="0 -960 960 960" fill="currentColor"><path d="m424-296 282-282-56-56-226 226-114-114-56 56 170 170Zm56 216q-83 0-156-31.5T197-197q-54-54-85.5-127T80-480q0-83 31.5-156T197-763q54-54 127-85.5T480-880q83 0 156 31.5T763-763q54 54 85.5 127T880-480q0 83-31.5 156T763-197q-54 54-127 85.5T480-80Zm0-80q134 0 227-93t93-227q0-134-93-227t-227-93q-134 0-227 93t-93 227q0 134 93 227t227 93Zm0-320Z"/></symbol>
	<symbol id="error" xmlns="http://www.w3.org/2000/svg" viewBox="0 -960 960 960" fill="currentColor"><path d="M480-280q17 0 28.5-11.5T520-320q0-17-11.5-28.5T480-360q-17 0-28.5 11.5T440-320q0 17 11.5 28.5T480-280Zm-40-160h80v-240h-80v240Zm40 360q-83 0-156-31.5T197-197q-54-54-85.5-127T80-480q0-83 31.5-156T197-763q54-54 127-85.5T480-880q83 0 156 31.5T763-763q54 54 85.5 127T880-480q0 83-31.5 156T763-197q-54 54-127 85.5T480-80Zm0-80q134 0 227-93t93-227q0-134-93-227t-227-93q-134 0-227 93t-93 227q0 134 93 227t227 93Zm0-320Z"/></symbol>
	<symbol id="trash" xmlns="http://www.w3.org/2000/svg" viewBox="0 -960 960 960" fill="currentColor"><path d="M280-120q-33 0-56.5-23.5T200-200v-520h-40v-80h200v-40h240v40h200v80h-40v520q0 33-23.5 56.5T680-120H280Zm400-600H280v520h400v-520ZM360-280h80v-360h-80v360Zm160 0h80v-360h-80v360ZM280-720v520-520Z"/></symbol>
	<symbol id="profile" viewBox="0 0 30 30" fill="none" xmlns="http://www.w3.org/2000/svg">
		<circle cx="15" cy="15" r="15" fill="#FF7300"/>
		<path fill-rule="evenodd" clip-rule="evenodd" d="M11.7535 18.2666C8.4881 18.2666 5.80888 20.9196 5.76322 24.1749H5.76337V24.1818C5.75148 24.2502 5.7562 24.3203 5.77694 24.3867V24.3934C5.78593 24.4194 5.79737 24.4446 5.81109 24.4685C5.81947 24.4827 5.82862 24.4964 5.83838 24.5095C5.84692 24.5213 5.85606 24.5327 5.86582 24.5437C5.87436 24.5554 5.88335 24.5669 5.89311 24.5778C5.9018 24.5873 5.91095 24.5964 5.9204 24.6051C5.93351 24.615 5.94723 24.6242 5.96141 24.6324C5.97239 24.6397 5.98383 24.6466 5.99556 24.653H6.00243C6.03902 24.6721 6.07804 24.6858 6.11845 24.694H6.12531C6.18172 24.7051 6.23965 24.7051 6.29606 24.694H24.478C24.5486 24.707 24.6213 24.7023 24.6896 24.6804C24.753 24.6618 24.8114 24.6292 24.8603 24.5849C24.8651 24.5804 24.8696 24.5759 24.8741 24.5713V24.5644C24.8835 24.5557 24.8927 24.5466 24.9014 24.5371C24.9036 24.5349 24.9059 24.5327 24.9082 24.5304C24.9154 24.5216 24.9222 24.5124 24.9286 24.503V24.4963C24.936 24.4852 24.9428 24.4739 24.9492 24.4621C24.9633 24.4361 24.9747 24.4086 24.9834 24.3801C24.9991 24.3248 25.0038 24.2667 24.9969 24.2094V24.2026C24.9666 20.9347 22.2817 18.2674 19.0067 18.2674H11.7531L11.7535 18.2666Z" fill="white"/>
		<path fill-rule="evenodd" clip-rule="evenodd" d="M15.3801 6.29688C12.6391 6.29688 10.4081 8.52812 10.4081 11.2688C10.4081 14.0078 12.6393 16.2385 15.3801 16.2385C18.119 16.2385 20.3501 14.0076 20.3501 11.2688C20.3501 8.52808 18.1191 6.29688 15.3801 6.29688Z" fill="white"/>
	</symbol>
	<symbol id="orders" width="30" height="30" viewBox="0 0 30 30" fill="none" xmlns="http://www.w3.org/2000/svg">
		<circle cx="15" cy="15" r="15" fill="#FF7300"/>
		<path d="M16.4045 7.00147C16.392 7.00074 16.3796 7.00074 16.3672 7.00147C16.2634 7.01039 16.17 7.06812 16.1158 7.15698C16.0616 7.24585 16.0528 7.35517 16.0921 7.45164L17.94 12.199H11.5814L13.4295 7.45164H13.4296C13.4717 7.34801 13.458 7.23006 13.3932 7.13886C13.3283 7.04765 13.2217 6.99577 13.1098 7.00147C12.9777 7.00673 12.8617 7.09091 12.8158 7.215L10.5291 13.1018C10.5205 13.1208 10.5136 13.1405 10.5088 13.1607C10.3504 13.0807 10.2846 12.8889 10.3605 12.7285L10.5664 12.1989H6.24891C5.88614 12.1989 5.59412 12.491 5.59412 12.8537V13.1811C5.59412 13.5439 5.88614 13.8359 6.24891 13.8359H23.2734C23.6362 13.8359 23.9282 13.5439 23.9282 13.1811V12.8537C23.9282 12.491 23.6362 12.1989 23.2734 12.1989H18.9507L19.1566 12.7285C19.2195 12.8838 19.1549 13.0614 19.007 13.1402C19.0032 13.127 18.9985 13.1142 18.9932 13.1016L16.7066 7.21485C16.66 7.0877 16.54 7.00234 16.4046 7L16.4045 7.00147Z" fill="white"/>
		<path fill-rule="evenodd" clip-rule="evenodd" d="M7.23108 14.4912L8.84381 21.4776C9.04945 22.3685 9.84369 22.9996 10.7583 22.9996H18.7629C19.6775 22.9996 20.4718 22.3685 20.6774 21.4776L22.2901 14.4912H7.23108ZM10.3389 16.2868C10.4985 16.2849 10.6363 16.3983 10.6649 16.5554L11.481 20.6402C11.5027 20.7273 11.4878 20.8196 11.4396 20.8955C11.3914 20.9712 11.314 21.024 11.2259 21.0411C11.1378 21.0583 11.0463 21.0386 10.9732 20.9864C10.9 20.9344 10.8515 20.8544 10.8389 20.7654L10.0217 16.6855C10.0015 16.5953 10.0204 16.5008 10.0737 16.4252C10.1271 16.3497 10.21 16.3002 10.3017 16.2891C10.3142 16.2884 10.3266 16.2884 10.3392 16.2891L10.3389 16.2868ZM13.1115 16.2868C13.2835 16.2805 13.4312 16.4085 13.4491 16.5797L13.9415 20.6644C13.9547 20.7524 13.9317 20.842 13.8778 20.9127C13.8237 20.9835 13.7433 21.0294 13.6549 21.0398C13.5665 21.0501 13.4778 21.0241 13.4088 20.9678C13.3398 20.9116 13.2967 20.8297 13.2892 20.741L12.8008 16.6562L12.8006 16.6564C12.7772 16.4778 12.9023 16.3138 13.0808 16.2894C13.091 16.2888 13.1013 16.2888 13.1115 16.2894L13.1115 16.2868ZM19.1771 16.2868C19.2772 16.2856 19.3724 16.3302 19.4355 16.4079C19.4985 16.4858 19.5225 16.5881 19.5007 16.6858L18.6835 20.7657H18.6834C18.6676 20.8516 18.6179 20.9278 18.5457 20.9769C18.4733 21.0261 18.3845 21.0444 18.2985 21.0277C18.2127 21.0111 18.1372 20.9606 18.0887 20.888C18.0401 20.8152 18.0227 20.7261 18.0401 20.6404L18.8573 16.5556C18.8835 16.4139 18.9994 16.3057 19.1426 16.2896C19.1542 16.2889 19.1657 16.2889 19.1772 16.2896L19.1771 16.2868ZM16.3942 16.2868C16.4884 16.2865 16.5783 16.3267 16.6407 16.3971C16.7031 16.4677 16.7322 16.5617 16.7203 16.6551L16.233 20.7398H16.2332C16.212 20.9203 16.0484 21.0494 15.8679 21.0282C15.6876 21.007 15.5584 20.8435 15.5796 20.6631L16.0731 16.5783H16.0733C16.0901 16.424 16.213 16.3028 16.3674 16.2879C16.3764 16.2876 16.3853 16.2876 16.3944 16.2879L16.3942 16.2868Z" fill="white"/>
	</symbol>
	<symbol id="wishlist" viewBox="0 0 30 30" fill="none" xmlns="http://www.w3.org/2000/svg">
		<circle cx="15" cy="15" r="15" fill="#FF7300"/>
		<path d="M24.5403 10.4838C24.2455 9.80207 23.8204 9.18428 23.2889 8.66503C22.757 8.14423 22.1298 7.73036 21.4415 7.44592C20.7277 7.14981 19.9622 6.99824 19.1894 7.00002C18.1051 7.00002 17.0472 7.29656 16.1279 7.85669C15.908 7.99068 15.699 8.13785 15.5011 8.2982C15.3031 8.13785 15.0942 7.99068 14.8743 7.85669C13.955 7.29656 12.8971 7.00002 11.8128 7.00002C11.0321 7.00002 10.2755 7.14938 9.56071 7.44592C8.87012 7.73148 8.24771 8.14224 7.71327 8.66503C7.18103 9.1837 6.75586 9.80163 6.46186 10.4838C6.15615 11.1933 6 11.9467 6 12.7221C6 13.4536 6.14955 14.2158 6.44646 14.9912C6.69499 15.6392 7.05128 16.3114 7.50654 16.9901C8.22792 18.0643 9.21981 19.1845 10.4514 20.3202C12.4924 22.2026 14.5136 23.503 14.5994 23.5557L15.1206 23.8896C15.3515 24.0368 15.6484 24.0368 15.8794 23.8896L16.4006 23.5557C16.4864 23.5008 18.5054 22.2026 20.5485 20.3202C21.7802 19.1845 22.7721 18.0643 23.4934 16.9901C23.9487 16.3114 24.3072 15.6392 24.5535 14.9912C24.8504 14.2158 25 13.4536 25 12.7221C25.0022 11.9467 24.846 11.1933 24.5403 10.4838Z" fill="white" stroke="white"/>
	</symbol>
	<symbol id="user" viewBox="0 0 18 20" fill="none" xmlns="http://www.w3.org/2000/svg">
		<mask id="path-1-inside-1_5406_1017" fill="white">
			<path d="M0 19.9998C0 15.893 2.67852 12.5647 5.98311 12.5647H11.3837C14.6888 12.5647 17.3668 15.893 17.3668 19.9998"/>
		</mask>
		<path d="M0 19.9998H1C1 16.2315 3.4227 13.5647 5.98311 13.5647V12.5647V11.5647C1.93435 11.5647 -1 15.5544 -1 19.9998H0ZM5.98311 12.5647V13.5647H11.3837V12.5647V11.5647H5.98311V12.5647ZM11.3837 12.5647V13.5647C13.9446 13.5647 16.3668 16.2314 16.3668 19.9998H17.3668H18.3668C18.3668 15.5545 15.433 11.5647 11.3837 11.5647V12.5647Z" fill="black" mask="url(#path-1-inside-1_5406_1017)"/>
		<path d="M8.68359 0.5C11.1836 0.500204 13.21 2.52729 13.21 5.02734C13.2098 7.52722 11.1835 9.55351 8.68359 9.55371C6.18354 9.55371 4.15645 7.52735 4.15625 5.02734C4.15625 2.52717 6.18342 0.5 8.68359 0.5Z" stroke="black"/>
	</symbol>
	<symbol id="search" viewBox="0 0 22 22" fill="none" xmlns="http://www.w3.org/2000/svg">
		<path d="M8.58253 0C3.84873 0 0 3.84958 0 8.5841C0 13.3186 3.84887 17.1682 8.58253 17.1682C10.7583 17.1682 12.7425 16.3526 14.2565 15.0137L21.0789 21.8374C21.1794 21.9409 21.3173 21.9994 21.4613 22C21.6054 22.0006 21.7436 21.9431 21.845 21.8408C21.9464 21.7382 22.0022 21.5994 21.9999 21.4553C21.9979 21.311 21.9378 21.1739 21.8332 21.0747L15.0194 14.2591C16.3541 12.7457 17.1651 10.7567 17.1651 8.58416C17.1651 3.84949 13.3162 5.28098e-05 8.58258 5.28098e-05L8.58253 0ZM8.58253 1.07311C12.7363 1.07311 16.0922 4.42944 16.0922 8.5842C16.0922 12.7388 12.7365 16.0953 8.58253 16.0953C4.42853 16.0953 1.07282 12.739 1.07282 8.5842C1.07282 4.42944 4.42853 1.07311 8.58253 1.07311Z" fill="black"/>
	</symbol>
	<symbol id="closeminicartbutton" viewBox="0 0 13 13" fill="none" xmlns="http://www.w3.org/2000/svg">
		<path d="M0.729275 13L0 12.2707L5.77072 6.5L0 0.729275L0.729275 0L6.5 5.77072L12.2707 0L13 0.729275L7.22928 6.5L13 12.2707L12.2707 13L6.5 7.22928L0.729275 13Z" fill="#13100D"/>
	</symbol>
	<symbol id="search_desk" viewBox="0 0 14 15" fill="none" xmlns="http://www.w3.org/2000/svg">
		<path d="M5.46161 0.5C2.44919 0.5 0 2.94973 0 5.96261C0 8.97546 2.44928 11.4252 5.46161 11.4252C6.84621 11.4252 8.10887 10.9062 9.07231 10.0542L13.4139 14.3965C13.4778 14.4624 13.5655 14.4996 13.6572 14.5C13.7489 14.5004 13.8369 14.4638 13.9014 14.3987C13.9659 14.3334 14.0014 14.2451 14 14.1534C13.9986 14.0616 13.9604 13.9743 13.8939 13.9112L9.55782 9.574C10.4071 8.61091 10.9232 7.34515 10.9232 5.96264C10.9232 2.94967 8.47397 0.500034 5.46164 0.500034L5.46161 0.5ZM5.46161 1.18289C8.10494 1.18289 10.2405 3.31873 10.2405 5.96267C10.2405 8.60649 8.10506 10.7425 5.46161 10.7425C2.81815 10.7425 0.682701 8.60661 0.682701 5.96267C0.682701 3.31873 2.81815 1.18289 5.46161 1.18289Z" fill="black"/>
	</symbol>
	<symbol id="trashnew" viewBox="0 0 32 29" fill="none" xmlns="http://www.w3.org/2000/svg">
		<path d="M13.714 2.28571L14.2854 0H17.714L18.2854 2.28571M22.8569 2.28571H10.2854L11.4283 16H20.5712L21.714 2.28571H9.14258H22.8569ZM15.9997 5.71429V12.5714V5.71429ZM18.8569 5.71429L18.2854 12.5714L18.8569 5.71429ZM13.1426 5.71429L13.714 12.5714L13.1426 5.71429Z" stroke="#ACACAC" stroke-linecap="round" stroke-linejoin="round"/>
		<path d="M0.660156 21.3125H2.54297C2.97005 21.3125 3.33073 21.3776 3.625 21.5078C3.92188 21.638 4.14714 21.8307 4.30078 22.0859C4.45703 22.3385 4.53516 22.6497 4.53516 23.0195C4.53516 23.2799 4.48177 23.5182 4.375 23.7344C4.27083 23.9479 4.11979 24.1302 3.92188 24.2812C3.72656 24.4297 3.49219 24.5404 3.21875 24.6133L3.00781 24.6953H1.23828L1.23047 24.082H2.56641C2.83724 24.082 3.0625 24.0352 3.24219 23.9414C3.42188 23.8451 3.55729 23.7161 3.64844 23.5547C3.73958 23.3932 3.78516 23.2148 3.78516 23.0195C3.78516 22.8008 3.74219 22.6094 3.65625 22.4453C3.57031 22.2812 3.4349 22.1549 3.25 22.0664C3.06771 21.9753 2.83203 21.9297 2.54297 21.9297H1.41406V27H0.660156V21.3125ZM3.98438 27L2.60156 24.4219L3.38672 24.418L4.78906 26.9531V27H3.98438ZM7.23438 27.0781C6.9401 27.0781 6.67318 27.0286 6.43359 26.9297C6.19661 26.8281 5.99219 26.6862 5.82031 26.5039C5.65104 26.3216 5.52083 26.1055 5.42969 25.8555C5.33854 25.6055 5.29297 25.332 5.29297 25.0352V24.8711C5.29297 24.5273 5.34375 24.2214 5.44531 23.9531C5.54688 23.6823 5.6849 23.4531 5.85938 23.2656C6.03385 23.0781 6.23177 22.9362 6.45312 22.8398C6.67448 22.7435 6.90365 22.6953 7.14062 22.6953C7.44271 22.6953 7.70312 22.7474 7.92188 22.8516C8.14323 22.9557 8.32422 23.1016 8.46484 23.2891C8.60547 23.474 8.70964 23.6927 8.77734 23.9453C8.84505 24.1953 8.87891 24.4688 8.87891 24.7656V25.0898H5.72266V24.5H8.15625V24.4453C8.14583 24.2578 8.10677 24.0755 8.03906 23.8984C7.97396 23.7214 7.86979 23.5755 7.72656 23.4609C7.58333 23.3464 7.38802 23.2891 7.14062 23.2891C6.97656 23.2891 6.82552 23.3242 6.6875 23.3945C6.54948 23.4622 6.43099 23.5638 6.33203 23.6992C6.23307 23.8346 6.15625 24 6.10156 24.1953C6.04688 24.3906 6.01953 24.6159 6.01953 24.8711V25.0352C6.01953 25.2357 6.04688 25.4245 6.10156 25.6016C6.15885 25.776 6.24089 25.9297 6.34766 26.0625C6.45703 26.1953 6.58854 26.2995 6.74219 26.375C6.89844 26.4505 7.07552 26.4883 7.27344 26.4883C7.52865 26.4883 7.74479 26.4362 7.92188 26.332C8.09896 26.2279 8.25391 26.0885 8.38672 25.9141L8.82422 26.2617C8.73307 26.3997 8.61719 26.5312 8.47656 26.6562C8.33594 26.7812 8.16276 26.8828 7.95703 26.9609C7.75391 27.0391 7.51302 27.0781 7.23438 27.0781ZM10.4414 23.6133V27H9.71484V22.7734H10.4023L10.4414 23.6133ZM10.293 24.7266L9.95703 24.7148C9.95964 24.4258 9.9974 24.1589 10.0703 23.9141C10.1432 23.6667 10.2513 23.4518 10.3945 23.2695C10.5378 23.0872 10.7161 22.9466 10.9297 22.8477C11.1432 22.7461 11.3906 22.6953 11.6719 22.6953C11.8698 22.6953 12.0521 22.724 12.2188 22.7812C12.3854 22.8359 12.5299 22.9232 12.6523 23.043C12.7747 23.1628 12.8698 23.3164 12.9375 23.5039C13.0052 23.6914 13.0391 23.918 13.0391 24.1836V27H12.3164V24.2188C12.3164 23.9974 12.2786 23.8203 12.2031 23.6875C12.1302 23.5547 12.026 23.4583 11.8906 23.3984C11.7552 23.3359 11.5964 23.3047 11.4141 23.3047C11.2005 23.3047 11.0221 23.3424 10.8789 23.418C10.7357 23.4935 10.6211 23.5977 10.5352 23.7305C10.4492 23.8633 10.3867 24.0156 10.3477 24.1875C10.3112 24.3568 10.293 24.5365 10.293 24.7266ZM13.0312 24.3281L12.5469 24.4766C12.5495 24.2448 12.5872 24.0221 12.6602 23.8086C12.7357 23.5951 12.8438 23.4049 12.9844 23.2383C13.1276 23.0716 13.3034 22.9401 13.5117 22.8438C13.7201 22.7448 13.9583 22.6953 14.2266 22.6953C14.4531 22.6953 14.6536 22.7253 14.8281 22.7852C15.0052 22.8451 15.1536 22.9375 15.2734 23.0625C15.3958 23.1849 15.4883 23.3424 15.5508 23.5352C15.6133 23.7279 15.6445 23.957 15.6445 24.2227V27H14.918V24.2148C14.918 23.9779 14.8802 23.7943 14.8047 23.6641C14.7318 23.5312 14.6276 23.4388 14.4922 23.3867C14.3594 23.332 14.2005 23.3047 14.0156 23.3047C13.8568 23.3047 13.7161 23.332 13.5938 23.3867C13.4714 23.4414 13.3685 23.5169 13.2852 23.6133C13.2018 23.707 13.138 23.8151 13.0938 23.9375C13.0521 24.0599 13.0312 24.1901 13.0312 24.3281ZM16.5469 24.9336V24.8438C16.5469 24.5391 16.5911 24.2565 16.6797 23.9961C16.7682 23.7331 16.8958 23.5052 17.0625 23.3125C17.2292 23.1172 17.431 22.9661 17.668 22.8594C17.9049 22.75 18.1706 22.6953 18.4648 22.6953C18.7617 22.6953 19.0286 22.75 19.2656 22.8594C19.5052 22.9661 19.7083 23.1172 19.875 23.3125C20.0443 23.5052 20.1732 23.7331 20.2617 23.9961C20.3503 24.2565 20.3945 24.5391 20.3945 24.8438V24.9336C20.3945 25.2383 20.3503 25.5208 20.2617 25.7812C20.1732 26.0417 20.0443 26.2695 19.875 26.4648C19.7083 26.6576 19.5065 26.8086 19.2695 26.918C19.0352 27.0247 18.7695 27.0781 18.4727 27.0781C18.1758 27.0781 17.9089 27.0247 17.6719 26.918C17.4349 26.8086 17.2318 26.6576 17.0625 26.4648C16.8958 26.2695 16.7682 26.0417 16.6797 25.7812C16.5911 25.5208 16.5469 25.2383 16.5469 24.9336ZM17.2695 24.8438V24.9336C17.2695 25.1445 17.2943 25.3438 17.3438 25.5312C17.3932 25.7161 17.4674 25.8802 17.5664 26.0234C17.668 26.1667 17.7943 26.2799 17.9453 26.3633C18.0964 26.444 18.2721 26.4844 18.4727 26.4844C18.6706 26.4844 18.8438 26.444 18.9922 26.3633C19.1432 26.2799 19.2682 26.1667 19.3672 26.0234C19.4661 25.8802 19.5404 25.7161 19.5898 25.5312C19.6419 25.3438 19.668 25.1445 19.668 24.9336V24.8438C19.668 24.6354 19.6419 24.4388 19.5898 24.2539C19.5404 24.0664 19.4648 23.901 19.3633 23.7578C19.2643 23.612 19.1393 23.4974 18.9883 23.4141C18.8398 23.3307 18.6654 23.2891 18.4648 23.2891C18.2669 23.2891 18.0924 23.3307 17.9414 23.4141C17.793 23.4974 17.668 23.612 17.5664 23.7578C17.4674 23.901 17.3932 24.0664 17.3438 24.2539C17.2943 24.4388 17.2695 24.6354 17.2695 24.8438ZM22.5234 26.3477L23.6797 22.7734H24.418L22.8984 27H22.4141L22.5234 26.3477ZM21.5586 22.7734L22.75 26.3672L22.832 27H22.3477L20.8164 22.7734H21.5586ZM26.8125 27.0781C26.5182 27.0781 26.2513 27.0286 26.0117 26.9297C25.7747 26.8281 25.5703 26.6862 25.3984 26.5039C25.2292 26.3216 25.099 26.1055 25.0078 25.8555C24.9167 25.6055 24.8711 25.332 24.8711 25.0352V24.8711C24.8711 24.5273 24.9219 24.2214 25.0234 23.9531C25.125 23.6823 25.263 23.4531 25.4375 23.2656C25.612 23.0781 25.8099 22.9362 26.0312 22.8398C26.2526 22.7435 26.4818 22.6953 26.7188 22.6953C27.0208 22.6953 27.2812 22.7474 27.5 22.8516C27.7214 22.9557 27.9023 23.1016 28.043 23.2891C28.1836 23.474 28.2878 23.6927 28.3555 23.9453C28.4232 24.1953 28.457 24.4688 28.457 24.7656V25.0898H25.3008V24.5H27.7344V24.4453C27.724 24.2578 27.6849 24.0755 27.6172 23.8984C27.5521 23.7214 27.4479 23.5755 27.3047 23.4609C27.1615 23.3464 26.9661 23.2891 26.7188 23.2891C26.5547 23.2891 26.4036 23.3242 26.2656 23.3945C26.1276 23.4622 26.0091 23.5638 25.9102 23.6992C25.8112 23.8346 25.7344 24 25.6797 24.1953C25.625 24.3906 25.5977 24.6159 25.5977 24.8711V25.0352C25.5977 25.2357 25.625 25.4245 25.6797 25.6016C25.737 25.776 25.819 25.9297 25.9258 26.0625C26.0352 26.1953 26.1667 26.2995 26.3203 26.375C26.4766 26.4505 26.6536 26.4883 26.8516 26.4883C27.1068 26.4883 27.3229 26.4362 27.5 26.332C27.6771 26.2279 27.832 26.0885 27.9648 25.9141L28.4023 26.2617C28.3112 26.3997 28.1953 26.5312 28.0547 26.6562C27.9141 26.7812 27.7409 26.8828 27.5352 26.9609C27.332 27.0391 27.0911 27.0781 26.8125 27.0781ZM30.0234 23.4375V27H29.3008V22.7734H30.0039L30.0234 23.4375ZM31.3438 22.75L31.3398 23.4219C31.2799 23.4089 31.2227 23.401 31.168 23.3984C31.1159 23.3932 31.056 23.3906 30.9883 23.3906C30.8216 23.3906 30.6745 23.4167 30.5469 23.4688C30.4193 23.5208 30.3112 23.5938 30.2227 23.6875C30.1341 23.7812 30.0638 23.8932 30.0117 24.0234C29.9622 24.151 29.9297 24.2917 29.9141 24.4453L29.7109 24.5625C29.7109 24.3073 29.7357 24.0677 29.7852 23.8438C29.8372 23.6198 29.9167 23.4219 30.0234 23.25C30.1302 23.0755 30.2656 22.9401 30.4297 22.8438C30.5964 22.7448 30.7943 22.6953 31.0234 22.6953C31.0755 22.6953 31.1354 22.7018 31.2031 22.7148C31.2708 22.7253 31.3177 22.737 31.3438 22.75Z" fill="#ACACAC"/>
	</symbol>
	<symbol id="arrow_footer" viewBox="0 0 17 10" fill="none" xmlns="http://www.w3.org/2000/svg">
		<path d="M0.813348 0.841207C0.39555 1.25177 0.39555 1.91371 0.813348 2.32427L7.89888 9.28714C8.23141 9.61392 8.76859 9.61392 9.10112 9.28714L16.1867 2.32427C16.6044 1.91371 16.6044 1.25177 16.1867 0.841207C15.7689 0.430641 15.0953 0.430641 14.6775 0.841207L8.49574 6.90753L2.31401 0.832828C1.90474 0.43064 1.22262 0.430641 0.813348 0.841207Z" fill="#2C2C2C"/>
	</symbol>
	<symbol id="add_to_cart" viewBox="0 0 41 41" fill="none" xmlns="http://www.w3.org/2000/svg">
		<path d="M0.5 10.0635C0.5 4.54063 4.97715 0.0634766 10.5 0.0634766H40.5V30.0635C40.5 35.5863 36.0229 40.0635 30.5 40.0635H5.5C2.73858 40.0635 0.5 37.8249 0.5 35.0635V10.0635Z" fill="#2D2D2C"/>
		<path d="M0.5 10.0635C0.5 4.54063 4.97715 0.0634766 10.5 0.0634766H40.5V30.0635C40.5 35.5863 36.0229 40.0635 30.5 40.0635H5.5C2.73858 40.0635 0.5 37.8249 0.5 35.0635V10.0635Z" fill="#48C993"/>
		<path d="M16.513 7.56348L11.988 12.101" stroke="white" stroke-width="2" stroke-miterlimit="10" stroke-linecap="round" stroke-linejoin="round"/>
		<path d="M24.4883 7.56348L29.0133 12.101" stroke="white" stroke-width="2" stroke-miterlimit="10" stroke-linecap="round" stroke-linejoin="round"/>
		<path d="M8 14.876C8 12.5635 9.2375 12.376 10.775 12.376H30.225C31.7625 12.376 33 12.5635 33 14.876C33 17.5635 31.7625 17.376 30.225 17.376H10.775C9.2375 17.376 8 17.5635 8 14.876Z" stroke="white" stroke-width="2"/>
		<path d="M9.875 17.5635L11.6375 28.3635C12.0375 30.7885 13 32.5635 16.575 32.5635H24.1125C28 32.5635 28.575 30.8635 29.025 28.5135L31.125 17.5635" stroke="white" stroke-width="2" stroke-linecap="round"/>
		<path d="M20.5 20.8135C20.872 20.8135 21.1738 21.1153 21.1738 21.4873V24.4072H24.085C24.4523 24.4075 24.75 24.7059 24.75 25.0732C24.7499 25.4406 24.4523 25.7381 24.085 25.7383H21.1738V28.6396C21.1738 29.0116 20.872 29.3135 20.5 29.3135C20.128 29.3135 19.8262 29.0116 19.8262 28.6396V25.7383H16.915C16.5477 25.7381 16.2501 25.4406 16.25 25.0732C16.25 24.7059 16.5477 24.4075 16.915 24.4072H19.8262V21.4873C19.8262 21.1153 20.128 20.8135 20.5 20.8135Z" fill="white" stroke="white" stroke-width="0.5"/>
	</symbol>
	<symbol id="arrow-left-shelf" viewBox="0 0 30 31" fill="none" xmlns="http://www.w3.org/2000/svg">
		<rect y="0.333496" width="30" height="30" rx="15" fill="#2D2D2C" fill-opacity="0.25"/>
		<path d="M17.3438 9.86475L11.875 15.3335L17.3438 20.8022" stroke="#2D2D2C" stroke-width="3.125" stroke-miterlimit="10" stroke-linecap="round" stroke-linejoin="round"/>
	</symbol>
	<symbol id="arrow-right-shelf" viewBox="0 0 30 31" fill="none" xmlns="http://www.w3.org/2000/svg">
		<rect width="30" height="30" rx="15" transform="matrix(-1 0 0 1 30 0.333496)" fill="#2D2D2C" fill-opacity="0.25"/>
		<path d="M12.6562 9.86475L18.125 15.3335L12.6562 20.8022" stroke="#2D2D2C" stroke-width="3.125" stroke-miterlimit="10" stroke-linecap="round" stroke-linejoin="round"/>
	</symbol>
	<symbol id="left-arrow-carousel" viewBox="0 0 30 30" fill="none" xmlns="http://www.w3.org/2000/svg">
		<circle cx="15" cy="15" r="15" fill="white" fill-opacity="0.6"/>
		<path d="M17.4573 9.13146C17.5179 9.06411 17.5652 8.98488 17.5967 8.8983C17.6281 8.81172 17.643 8.71948 17.6405 8.62685C17.638 8.53422 17.6182 8.44302 17.5821 8.35844C17.5461 8.27387 17.4945 8.19758 17.4304 8.13393C17.3663 8.07028 17.2908 8.02053 17.2084 7.9875C17.126 7.95447 17.0382 7.93882 16.95 7.94144C16.8618 7.94406 16.775 7.9649 16.6944 8.00277C16.6139 8.04064 16.5413 8.0948 16.4807 8.16215L10.7717 14.5114C10.6538 14.6423 10.5881 14.8158 10.5881 14.996C10.5881 15.1763 10.6538 15.3497 10.7717 15.4807L16.4807 21.8306C16.5409 21.8994 16.6135 21.955 16.6943 21.9941C16.7751 22.0332 16.8625 22.055 16.9515 22.0584C17.0404 22.0617 17.1291 22.0464 17.2123 22.0134C17.2956 21.9805 17.3717 21.9304 17.4364 21.8663C17.5011 21.8021 17.553 21.7251 17.5892 21.6397C17.6253 21.5542 17.6449 21.4621 17.6468 21.3687C17.6487 21.2753 17.633 21.1824 17.6004 21.0954C17.5679 21.0084 17.5192 20.9291 17.4573 20.862L12.1835 14.996L17.4573 9.13146Z" fill="#1D2939"/>
	</symbol>
	<symbol id="right-arrow-carousel" viewBox="0 0 30 30" fill="none" xmlns="http://www.w3.org/2000/svg">
		<circle cx="15" cy="15" r="15" transform="rotate(-180 15 15)" fill="white" fill-opacity="0.6"/>
		<path d="M12.5425 20.8685C12.4819 20.9359 12.4345 21.0151 12.4031 21.1017C12.3716 21.1883 12.3567 21.2805 12.3592 21.3731C12.3617 21.4658 12.3816 21.557 12.4176 21.6416C12.4537 21.7261 12.5052 21.8024 12.5694 21.8661C12.6335 21.9297 12.7089 21.9795 12.7913 22.0125C12.8738 22.0455 12.9616 22.0612 13.0498 22.0586C13.138 22.0559 13.2248 22.0351 13.3053 21.9972C13.3858 21.9594 13.4585 21.9052 13.5191 21.8379L19.228 15.4886C19.3459 15.3577 19.4116 15.1842 19.4116 15.004C19.4116 14.8237 19.3459 14.6503 19.228 14.5193L13.5191 8.1694C13.4589 8.10057 13.3863 8.045 13.3054 8.0059C13.2246 7.9668 13.1372 7.94495 13.0483 7.94163C12.9594 7.93832 12.8707 7.95359 12.7875 7.98657C12.7042 8.01954 12.628 8.06957 12.5633 8.13373C12.4986 8.1979 12.4467 8.27493 12.4106 8.36034C12.3745 8.44576 12.3549 8.53786 12.353 8.6313C12.351 8.72473 12.3668 8.81764 12.3993 8.90463C12.4319 8.99162 12.4805 9.07095 12.5425 9.13801L17.8162 15.004L12.5425 20.8685Z" fill="#1D2939"/>
	</symbol>
	<symbol id="left-arrow-category" viewBox="0 0 30 30" fill="none" xmlns="http://www.w3.org/2000/svg">
		<circle cx="15" cy="15" r="15" fill="white" fill-opacity="0.6"/>
		<path d="M17.4573 9.13146C17.5179 9.06411 17.5652 8.98488 17.5967 8.8983C17.6281 8.81172 17.643 8.71948 17.6405 8.62685C17.638 8.53422 17.6182 8.44302 17.5821 8.35844C17.5461 8.27387 17.4945 8.19758 17.4304 8.13393C17.3663 8.07028 17.2908 8.02053 17.2084 7.9875C17.126 7.95447 17.0382 7.93882 16.95 7.94144C16.8618 7.94406 16.775 7.9649 16.6944 8.00277C16.6139 8.04064 16.5413 8.0948 16.4807 8.16215L10.7717 14.5114C10.6538 14.6423 10.5881 14.8158 10.5881 14.996C10.5881 15.1763 10.6538 15.3497 10.7717 15.4807L16.4807 21.8306C16.5409 21.8994 16.6135 21.955 16.6943 21.9941C16.7751 22.0332 16.8625 22.055 16.9515 22.0584C17.0404 22.0617 17.1291 22.0464 17.2123 22.0134C17.2956 21.9805 17.3717 21.9304 17.4364 21.8663C17.5011 21.8021 17.553 21.7251 17.5892 21.6397C17.6253 21.5542 17.6449 21.4621 17.6468 21.3687C17.6487 21.2753 17.633 21.1824 17.6004 21.0954C17.5679 21.0084 17.5192 20.9291 17.4573 20.862L12.1835 14.996L17.4573 9.13146Z" fill="#1D2939"/>
	</symbol>
	<symbol id="right-arrow-category" viewBox="0 0 30 30" fill="none" xmlns="http://www.w3.org/2000/svg">
		<circle cx="15" cy="15" r="15" transform="rotate(-180 15 15)" fill="white" fill-opacity="0.6"/>
		<path d="M12.5425 20.8685C12.4819 20.9359 12.4345 21.0151 12.4031 21.1017C12.3716 21.1883 12.3567 21.2805 12.3592 21.3731C12.3617 21.4658 12.3816 21.557 12.4176 21.6416C12.4537 21.7261 12.5052 21.8024 12.5694 21.8661C12.6335 21.9297 12.7089 21.9795 12.7913 22.0125C12.8738 22.0455 12.9616 22.0612 13.0498 22.0586C13.138 22.0559 13.2248 22.0351 13.3053 21.9972C13.3858 21.9594 13.4585 21.9052 13.5191 21.8379L19.228 15.4886C19.3459 15.3577 19.4116 15.1842 19.4116 15.004C19.4116 14.8237 19.3459 14.6503 19.228 14.5193L13.5191 8.1694C13.4589 8.10057 13.3863 8.045 13.3054 8.0059C13.2246 7.9668 13.1372 7.94495 13.0483 7.94163C12.9594 7.93832 12.8707 7.95359 12.7875 7.98657C12.7042 8.01954 12.628 8.06957 12.5633 8.13373C12.4986 8.1979 12.4467 8.27493 12.4106 8.36034C12.3745 8.44576 12.3549 8.53786 12.353 8.6313C12.351 8.72473 12.3668 8.81764 12.3993 8.90463C12.4319 8.99162 12.4805 9.07095 12.5425 9.13801L17.8162 15.004L12.5425 20.8685Z" fill="#1D2939"/>
	</symbol>
	<symbol id="arrowup" viewBox="0 0 18 10" fill="none" xmlns="http://www.w3.org/2000/svg">
		<path d="M0.3562 8.01843L8.33509 0.253455C8.43008 0.161289 8.53298 0.0961586 8.6438 0.0580633C8.75462 0.0193537 8.87335 -9.06711e-07 9 -8.94129e-07C9.12665 -8.81547e-07 9.24538 0.0193537 9.3562 0.0580634C9.46702 0.0961587 9.56992 0.161289 9.66491 0.253455L17.6675 8.01843C17.8892 8.23349 18 8.50231 18 8.82489C18 9.14747 17.8813 9.42396 17.6438 9.65438C17.4063 9.88479 17.1293 10 16.8127 10C16.496 10 16.219 9.88479 15.9815 9.65438L9 2.88018L2.01847 9.65438C1.79683 9.86943 1.5239 9.97696 1.19968 9.97696C0.874827 9.97696 0.593667 9.86175 0.3562 9.63134C0.118733 9.40092 -9.07253e-07 9.1321 -8.76732e-07 8.82488C-8.4621e-07 8.51766 0.118734 8.24885 0.3562 8.01843Z" fill="black"/>
	</symbol>
	<symbol id="arrowdown" viewBox="0 0 18 10" fill="none" xmlns="http://www.w3.org/2000/svg">
		<path d="M17.6438 1.98157L9.66491 9.74654C9.56992 9.83871 9.46702 9.90384 9.3562 9.94194C9.24538 9.98065 9.12665 10 9 10C8.87335 10 8.75462 9.98065 8.6438 9.94194C8.53298 9.90384 8.43008 9.83871 8.33509 9.74654L0.332454 1.98157C0.110818 1.76651 1.01389e-07 1.49769 1.05236e-07 1.17511C1.09082e-07 0.852534 0.118734 0.576036 0.356201 0.345622C0.593668 0.115207 0.870712 1.03831e-08 1.18734 1.41588e-08C1.50396 1.79345e-08 1.781 0.115207 2.01847 0.345622L9 7.11982L15.9815 0.345622C16.2032 0.130569 16.4761 0.023041 16.8003 0.023041C17.1252 0.023041 17.4063 0.138249 17.6438 0.368663C17.8813 0.599078 18 0.867895 18 1.17511C18 1.48233 17.8813 1.75115 17.6438 1.98157Z" fill="black"/>
	</symbol>
	<symbol id="lupa" viewBox="0 0 32 32" fill="none" xmlns="http://www.w3.org/2000/svg">
		<rect width="32" height="32" rx="10" fill="black"/>
		<path d="M22.585 21.0636L19.7862 18.4452C20.774 17.3425 21.2696 15.9247 21.1698 14.4876C21.0699 13.0505 20.3822 11.705 19.2501 10.7318C18.118 9.75859 16.6289 9.23277 15.0934 9.26401C13.5579 9.29525 12.0945 9.88114 11.0085 10.8995C9.92248 11.9178 9.29766 13.29 9.26434 14.7298C9.23103 16.1696 9.7918 17.5659 10.8297 18.6274C11.8676 19.689 13.3025 20.3338 14.8351 20.4275C16.3677 20.5211 17.8797 20.0564 19.0558 19.1301L21.8482 21.7546C21.947 21.8442 22.0791 21.8943 22.2166 21.8943C22.3541 21.8943 22.4862 21.8442 22.585 21.7546C22.6821 21.6626 22.7366 21.5385 22.7366 21.4091C22.7366 21.2797 22.6821 21.1555 22.585 21.0636ZM10.323 14.8631C10.323 13.9521 10.6111 13.0615 11.1509 12.3039C11.6907 11.5464 12.458 10.956 13.3556 10.6074C14.2533 10.2587 15.241 10.1675 16.194 10.3452C17.1469 10.523 18.0223 10.9617 18.7093 11.6059C19.3963 12.2501 19.8642 13.0709 20.0538 13.9645C20.2433 14.858 20.146 15.7842 19.7742 16.6259C19.4024 17.4676 18.7727 18.1871 17.9649 18.6932C17.157 19.1994 16.2072 19.4695 15.2356 19.4695C13.9332 19.4679 12.6847 18.9821 11.7638 18.1186C10.8429 17.2551 10.3247 16.0843 10.323 14.8631Z" fill="white"/>
		</symbol>
		<symbol id="ArrowMenuInstitutional" width="25" height="24" viewBox="0 0 25 24" fill="none" xmlns="http://www.w3.org/2000/svg">
		<g clip-path="url(#clip0_4120_35324)"><path d="M4.83293 7.34331C4.38902 7.7995 4.38902 8.53498 4.83293 8.99116L12.3613 16.7277C12.7146 17.0908 13.2854 17.0908 13.6387 16.7277L21.1671 8.99116C21.611 8.53498 21.611 7.7995 21.1671 7.34331C20.7232 6.88713 20.0075 6.88713 19.5635 7.34331L12.9955 14.0837L6.42739 7.334C5.99254 6.88713 5.26778 6.88713 4.83293 7.34331Z" fill="#ffffff"/></g><defs><clipPath id="clip0_4120_35324"><rect width="24" height="24" fill="white" transform="matrix(-1 0 0 -1 24.5 24)"/></clipPath></defs>
	</symbol>
	<symbol id="lupa-busca-vazia" viewBox="0 0 15 14" fill="none" xmlns="http://www.w3.org/2000/svg">
		<path d="M14.3425 13.0793L11.4343 10.1773C12.4607 8.95507 12.9757 7.3837 12.8719 5.79092C12.7682 4.19813 12.0536 2.70691 10.8773 1.62826C9.70094 0.54962 8.15368 -0.0331639 6.5582 0.00145886C4.96272 0.0360816 3.44219 0.685438 2.31375 1.8141C1.18531 2.94276 0.536075 4.46357 0.501459 6.05936C0.466842 7.65515 1.04952 9.2027 2.12795 10.3792C3.20639 11.5558 4.69733 12.2705 6.28981 12.3743C7.88229 12.4781 9.45336 11.963 10.6753 10.9364L13.5768 13.8452C13.6795 13.9445 13.8168 14 13.9597 14C14.1025 14 14.2398 13.9445 14.3425 13.8452C14.4434 13.7433 14.5 13.6057 14.5 13.4622C14.5 13.3188 14.4434 13.1812 14.3425 13.0793ZM1.60149 6.20714C1.60149 5.19738 1.90086 4.2103 2.46175 3.37071C3.02263 2.53112 3.81984 1.87675 4.75256 1.49033C5.68528 1.10391 6.71162 1.0028 7.70179 1.1998C8.69195 1.39679 9.60148 1.88304 10.3154 2.59705C11.0292 3.31106 11.5154 4.22076 11.7123 5.21112C11.9093 6.20148 11.8082 7.22801 11.4219 8.16091C11.0355 9.09381 10.3813 9.89117 9.54184 10.4522C8.70242 11.0132 7.71552 11.3126 6.70595 11.3126C5.35271 11.3108 4.0554 10.7723 3.09851 9.81527C2.14163 8.8582 1.60327 7.56064 1.60149 6.20714Z" fill="black"/>
	</symbol>
	<symbol id="arrow-back-search-error" viewBox="0 0 17 13" fill="none" xmlns="http://www.w3.org/2000/svg">
		<path d="M7.48431 12.7432L0.779373 7.0942C0.677783 7.00861 0.605653 6.91589 0.562986 6.81603C0.520995 6.71617 0.5 6.60918 0.5 6.49506C0.5 6.38094 0.520995 6.27395 0.562986 6.17409C0.605653 6.07424 0.677783 5.98151 0.779373 5.89592L7.48431 0.246898C7.67056 0.0899803 7.9032 0.00781295 8.18224 0.000395038C8.46195 -0.00645227 8.70339 0.0757151 8.90657 0.246898C9.10975 0.403815 9.21574 0.599819 9.22455 0.83491C9.23268 1.07057 9.13515 1.27399 8.93197 1.44518L3.95406 5.63915H15.3067C15.5946 5.63915 15.836 5.72103 16.0311 5.8848C16.2255 6.04913 16.3226 6.25255 16.3226 6.49506C16.3226 6.73757 16.2255 6.94071 16.0311 7.10447C15.836 7.26881 15.5946 7.35097 15.3067 7.35097H3.95406L8.93197 11.5449C9.11822 11.7019 9.21574 11.9016 9.22455 12.1441C9.23268 12.3866 9.13515 12.5863 8.93197 12.7432C8.74572 12.9144 8.50868 13 8.22084 13C7.933 13 7.68749 12.9144 7.48431 12.7432Z" fill="#777777"/>
	</symbol>
</svg>
